<svg width="3000" height="2742" viewBox="0 0 3000 2742" fill="none" xmlns="http://www.w3.org/2000/svg">
<g clip-path="url(#clip0_8148_4)">
<path d="M2427.74 0.878418C2426.74 1.25513 2412.3 7.65674 2395.73 15.0625C2379.16 22.468 2359.7 31.1292 2352.42 34.2671C2345.14 37.2795 2327.56 45.062 2313.25 51.2124C2299.06 57.4885 2265.67 71.9231 2239.18 83.3455C2212.82 94.6423 2185.2 106.567 2177.92 109.831C2170.64 112.969 2136.24 127.78 2101.34 142.717C2008.19 182.381 1955.84 204.975 1914.91 222.799C1894.95 231.586 1875.99 239.619 1872.85 240.749C1867.58 242.757 1798.03 242.883 940.719 243.51C17.1205 244.138 14.2331 244.138 9.96474 246.648C7.57948 248.029 4.56652 250.79 3.06004 252.673L0.423698 256.188L0.0470775 1485.91C-0.0784625 2162.22 0.0470775 2717.52 0.423698 2719.91C1.42802 2725.43 13.4799 2738.11 19.7569 2740.37C23.3975 2741.75 287.032 2742 1438.49 2742L2852.69 2742L2859.35 2738.23C2868.26 2733.34 2876.55 2724.05 2877.68 2717.9C2879.06 2709.49 2878.56 1040.32 2877.17 1032.91C2875.54 1024.25 2868.14 1013.45 2861.36 1009.94C2857.09 1007.68 2854.2 1007.3 2839.51 1007.3C2823.95 1007.3 2822.06 1007.55 2815.66 1010.57C2809.01 1013.71 2803.48 1019.1 2799.21 1026.76C2797.71 1029.4 2797.33 1150.9 2796.83 1843.9L2796.2 2657.9L2226.88 2658.53C1913.78 2658.91 1657.3 2659.03 1657.05 2658.91C1655.8 2658.03 1661.44 2653.38 1666.72 2651C1669.98 2649.49 1678.52 2644.85 1685.8 2640.58C1699.23 2632.92 1726.1 2618.11 1779.33 2589.12C1795.9 2580.2 1820.5 2566.77 1833.94 2559.37C1879.26 2534.39 1981.95 2478.78 2013.46 2462.09C2024.88 2456.06 2040.07 2447.9 2047.35 2443.89C2054.64 2440 2066.19 2433.72 2073.09 2430.08C2086.52 2422.93 2110.75 2410 2225.62 2348.24C2328.44 2292.89 2397.36 2256.11 2429.62 2239.29C2465.78 2220.34 2474.07 2214.31 2476.58 2204.77C2477.83 2200 2480.09 2178.66 2480.84 2166.49L2481.1 2160.84L2567.84 2160.46L2654.59 2160.21L2657.6 2156.95L2660.62 2153.68V2087.91V2022.14L2657.1 2018.75L2653.71 2015.24L2616.8 2014.86L2580.02 2014.48L2579.39 1997.91C2578.77 1983.73 2578.89 1137.34 2579.39 671.41L2579.64 520.032L2628.98 519.279C2655.97 518.903 2689.62 518.903 2703.55 519.405L2729.04 520.283L2729.29 553.17C2729.67 582.792 2729.92 586.307 2731.92 588.315C2734.06 590.449 2740.46 590.575 2841.14 590.951C2912.95 591.203 2949.61 590.951 2952.62 590.073C2962.17 587.186 2961.79 589.32 2962.54 534.216L2963.17 485.137L2976.98 484.51C2988.78 484.008 2991.42 483.506 2994.81 480.995C2997.07 479.364 2999.2 476.853 2999.58 475.347C2999.95 473.841 3000.08 439.448 2999.95 398.905L2999.58 325.099L2994.81 320.454L2990.16 315.685L2948.98 315.057L2907.93 314.429L2900.4 309.157C2896.26 306.271 2881.82 295.476 2868.39 285.183C2854.95 275.016 2830.1 256.188 2813.15 243.385C2796.2 230.582 2764.31 206.356 2742.22 189.536C2652.96 121.629 2637.39 109.956 2590.94 75.438C2547.26 43.0537 2533.32 32.3843 2517.5 19.0791C2509.97 12.552 2500.43 5.64819 2496.54 3.63989L2489.38 0L2459.5 0.125488C2443.06 0.125488 2428.75 0.501953 2427.74 0.878418ZM2420.21 52.4675C2420.21 52.9697 2413.93 72.9275 2406.27 96.6509C2398.62 120.5 2385.94 160.541 2378.03 185.771C2361.58 237.862 2354.43 260.079 2342.88 295.099L2334.72 319.701L2165.61 320.454C2072.59 320.831 1982.45 321.082 1965.13 320.831C1947.93 320.705 1906.12 320.454 1872.48 320.329C1809.21 320.078 1806.57 319.827 1815.23 315.308C1820.25 312.672 1865.95 291.459 1886.66 282.171C1897.33 277.275 1915.41 268.991 1926.84 263.594C1947.17 254.054 1997.64 231.586 2020.74 221.921C2042.33 212.883 2085.52 193.678 2117.03 178.867C2134.35 170.833 2159.46 159.662 2172.89 154.139C2217.59 135.813 2251.23 122.006 2262.03 117.362C2267.93 114.851 2290.78 105.563 2312.87 96.6509C2367.98 74.5593 2408.03 57.4883 2415.81 52.9695C2418.83 51.2124 2420.21 51.0869 2420.21 52.4675ZM2539.47 90.3748C2603.37 136.692 2627.85 155.646 2694.89 210.247C2711.46 223.678 2779.63 280.162 2796.95 294.597C2808.38 304.262 2819.8 313.3 2822.31 314.931C2824.82 316.438 2826.96 318.195 2826.96 318.823C2826.96 319.952 2633.38 321.835 2606.64 320.956C2596.34 320.58 2586.05 320.203 2583.91 320.203C2579.39 320.078 2579.39 320.078 2573.37 299.994C2571.23 292.714 2568.97 285.434 2568.35 283.677C2567.72 281.919 2565.08 273.133 2562.32 264.221C2556.17 244.012 2532.44 167.068 2524.03 139.956C2520.64 128.91 2517.13 116.985 2516.25 113.596C2515.37 110.082 2511.98 97.7805 2508.84 85.9817C2505.7 74.3081 2503.07 64.5176 2503.07 64.2664C2503.07 63.8899 2504.95 65.145 2507.21 66.7769C2509.34 68.5342 2523.9 79.0779 2539.47 90.3748ZM2469.04 160.792C2477.58 195.31 2479.34 202.841 2490.64 252.924C2494.78 271.501 2499.93 293.969 2502.06 302.881C2504.2 311.668 2505.58 319.199 2505.32 319.576C2504.45 320.329 2396.1 320.203 2395.35 319.45C2394.98 319.073 2395.35 318.069 2396.23 317.065C2396.98 316.061 2409.16 280.915 2423.22 238.991C2437.28 196.942 2449.96 159.411 2451.47 155.646C2452.97 151.88 2455.36 144.349 2456.74 138.951C2458.25 133.679 2459.75 129.286 2460.26 129.286C2460.76 129.286 2464.65 143.47 2469.04 160.792ZM1499.37 328.739L1503.01 329.492L1493.6 339.533C1435.72 400.537 1419.53 416.729 1379.23 453.004C1357.64 472.46 1354.37 477.355 1354.37 490.66C1354.37 495.305 1355 501.079 1355.63 503.589C1357.14 508.61 1362.91 515.262 1368.06 517.522C1370.57 518.652 1489.33 519.154 1849.38 519.405L2327.31 519.656L2327.18 1147.01C2327.06 1491.94 2326.68 1778.25 2326.43 1783.27L2325.8 1792.18L2319.4 1790.3C2306.72 1786.54 2236.04 1762.56 2224.24 1758.04L2212.19 1753.4L2211.44 1728.04C2210.93 1714.11 2210.56 1647.58 2210.43 1580.31C2210.43 1448.26 2209.93 1433.32 2205.79 1425.16C2202.4 1418.64 2200.14 1417.13 2184.82 1412.11C2177.92 1409.85 2160.09 1403.95 2145.28 1398.93C2106.36 1385.87 1982.58 1345.21 1940.65 1331.65C1920.94 1325.37 1876.12 1310.69 1840.84 1299.01C1805.69 1287.47 1774.05 1277.3 1770.79 1276.42C1767.4 1275.67 1761.37 1275.29 1757.23 1275.67C1748.69 1276.42 1700.74 1292.49 1540.17 1348.34C1532.26 1351.1 1502.01 1361.4 1473.01 1371.31C1444.01 1381.23 1417.77 1390.27 1414.63 1391.4C1411.49 1392.53 1394.55 1398.55 1376.97 1404.58C1359.4 1410.6 1329.14 1421.27 1309.81 1428.17C1290.47 1435.08 1268.76 1442.74 1261.47 1445.12C1254.19 1447.63 1242.77 1451.52 1235.99 1454.03L1223.81 1458.43L1222.05 1455.66C1207.37 1431.56 1176.11 1376.59 1176.11 1374.7C1176.11 1374.2 1181.63 1374.2 1188.41 1374.7C1246.91 1378.97 1268.63 1379.22 1275.91 1375.83C1282.31 1372.95 1284.2 1370.69 1284.95 1364.79C1285.58 1359.01 1284.45 1357.38 1267.5 1339.06C1240.13 1309.43 1199.96 1260.98 1182.89 1237.01C1173.09 1223.2 1167.57 1215.04 1145.98 1181.78C1141.96 1175.5 1139.07 1169.98 1139.57 1169.48C1140.2 1168.85 1152.13 1170.23 1166.19 1172.36C1198.7 1177.38 1226.2 1178.76 1234.36 1175.63C1241.14 1172.99 1243.77 1170.23 1244.78 1164.46C1245.66 1158.68 1242.27 1152.78 1228.33 1135.46C1222.81 1128.56 1213.77 1116.63 1208.24 1108.98C1193.56 1088.39 1138.44 1005.3 1130.91 992.241C1127.4 985.965 1110.95 953.706 1094.51 920.443C1074.04 879.022 1063.75 859.566 1061.87 858.562C1057.72 856.302 1051.07 858.06 1048.18 862.202C1046.8 864.21 1040.15 877.515 1033.62 891.95C1004.49 955.087 983.528 989.48 918.373 1079.85C902.052 1102.45 902.304 1101.82 909.962 1114C920.507 1130.94 926.156 1144.87 928.667 1160.94C929.42 1165.46 930.425 1169.48 931.052 1170.1C931.806 1170.86 940.719 1170.73 952.771 1169.98C964.069 1169.35 973.485 1168.97 973.861 1169.23C974.489 1169.85 959.927 1194.08 949.632 1209.39C936.953 1228.35 911.091 1263.62 895.65 1282.82C887.741 1292.86 881.087 1301.65 881.087 1302.53C881.087 1303.28 884.1 1307.3 887.741 1311.31C891.382 1315.33 898.286 1323.11 903.057 1328.64C922.641 1351.48 936.451 1366.79 959.173 1390.9C989.052 1422.65 993.32 1430.43 993.446 1453.53C993.446 1469.09 991.312 1476.37 983.277 1488.93C977.377 1498.22 965.325 1508.88 954.152 1514.78C943.23 1520.56 926.282 1524.57 890.879 1530.1C882.468 1531.35 874.308 1533.36 872.048 1534.74C869.789 1536 864.391 1541.9 860.122 1547.67C837.148 1578.93 832.127 1585.2 825.599 1592.23C821.707 1596.5 816.56 1600.89 814.3 1602.02C812.04 1603.15 797.478 1608.67 781.911 1614.32C766.344 1619.84 741.236 1629.01 726.045 1634.53C703.197 1642.94 623.228 1670.68 616.072 1672.81C614.691 1673.19 613.812 1672.44 613.561 1670.43C613.31 1668.8 613.185 1621.6 613.436 1565.37C613.687 1469.09 613.813 1463.32 615.947 1463.95C660.513 1478.63 682.357 1482.27 745.504 1485.04C796.473 1487.29 844.806 1485.16 891.131 1478.51C931.931 1472.73 938.961 1470.48 944.234 1461.31C948.251 1454.41 945.238 1449.01 928.039 1432.07C912.723 1417 883.975 1385.37 854.096 1350.73C814.426 1304.79 787.937 1268.39 752.409 1211.27C743.621 1197.09 733.327 1180.52 729.56 1174.5C725.669 1168.47 722.907 1163.07 723.409 1162.7C723.786 1162.32 735.21 1163.2 748.894 1164.71C785.175 1168.72 802.374 1169.85 827.984 1169.85C860.373 1169.85 870.291 1167.09 872.802 1157.18C874.685 1149.39 871.295 1145 837.776 1111.49C806.768 1080.48 789.066 1060.9 762.326 1028.01C731.193 989.605 699.431 942.535 682.86 910.025C679.847 904.126 676.583 898.477 675.704 897.348C673.821 895.214 673.319 892.452 674.951 892.452C675.453 892.452 687.756 894.084 702.193 896.092C738.725 901.239 755.422 902.745 778.898 902.996C801.244 903.121 802.374 902.87 806.642 894.461C810.283 887.306 806.642 880.402 789.82 862.327C764.963 835.591 752.409 820.654 731.193 792.287C706.963 759.902 669.803 706.054 653.609 679.695C647.708 670.155 627.496 633.252 627.496 631.997C627.496 631.871 623.354 622.959 618.206 612.29C613.185 601.746 603.016 578.901 595.735 561.705C577.155 517.773 573.891 510.744 569.371 506.099C564.601 501.204 561.462 501.079 556.19 505.472C552.926 508.484 542.506 527.062 538.363 537.731C535.476 545.136 505.095 611.286 499.069 623.336C483.376 654.59 461.156 691.745 436.927 727.392C420.23 751.995 417.468 755.76 382.944 800.822C379.053 805.968 372.148 814.378 367.628 819.65C363.109 824.797 355.2 834.085 350.053 840.361C344.906 846.512 337.248 855.298 332.979 859.817C310.633 883.289 307.244 890.569 314.651 898.854C317.915 902.619 319.044 902.996 330.469 904.126C345.157 905.757 364.364 904.251 399.767 898.728C432.658 893.582 451.74 891.448 451.74 892.703C451.74 893.331 450.61 895.339 449.355 897.222C447.974 899.105 442.199 908.268 436.299 917.556C414.58 952.326 398.637 973.79 353.819 1028.64C336.997 1049.35 308.75 1079.48 273.85 1114C244.097 1143.49 240.833 1147.13 240.833 1150.77C240.833 1156.92 243.971 1161.95 249.997 1165.08C255.27 1167.97 255.521 1167.97 310.508 1167.84C359.845 1167.84 367.628 1167.59 383.949 1165.21C393.992 1163.7 402.403 1162.82 402.654 1163.07C403.031 1163.33 402.152 1165.21 400.645 1167.09C399.265 1168.97 386.711 1188.81 372.65 1211.27C358.715 1233.62 344.027 1256.59 340.261 1262.11C302.724 1316.08 253.261 1373.95 206.184 1419.01C185.595 1438.72 175.552 1450.14 173.041 1456.79C171.911 1459.55 172.288 1461.31 174.548 1465.96C181.578 1480.01 190.742 1481.77 268.452 1483.78C347.542 1485.79 407.048 1482.65 451.113 1474.12C464.796 1471.48 491.788 1465.2 499.822 1462.82C501.831 1462.19 501.956 1468.72 501.956 1586.96C501.956 1704.7 501.831 1711.85 499.822 1712.73C484.381 1718.76 381.061 1754.91 333.105 1770.97C313.144 1777.75 295.066 1784.15 292.932 1785.16C290.923 1786.29 287.032 1789.42 284.395 1792.18C280.001 1796.7 279.374 1798.08 278.495 1806.37C276.486 1823.94 274.478 2000.42 275.859 2035.82L277.114 2068.96L281.131 2073.1C285.149 2077.24 303.854 2085.02 322.811 2090.55C326.702 2091.68 329.966 2093.06 329.966 2093.56C329.966 2094.06 317.915 2100.09 303.352 2106.87C267.95 2123.18 227.275 2143.39 224.513 2145.78C219.868 2150.04 219.24 2155.82 218.236 2207.28C217.734 2234.9 217.106 2295.27 216.855 2341.59C216.353 2423.18 216.478 2425.94 218.863 2432.59C220.244 2436.36 223.132 2441.13 225.266 2443.26C230.162 2448.28 247.612 2456.69 269.707 2464.98C278.997 2468.49 299.711 2476.52 315.529 2482.8C331.473 2489.2 362.23 2501.25 383.949 2509.79C453.247 2536.9 496.433 2554.1 540.246 2571.92C563.722 2581.46 593.726 2593.63 606.782 2598.91C629.254 2607.94 671.812 2625.77 710.729 2642.34C720.271 2646.48 728.305 2649.74 728.682 2649.74C729.058 2649.74 731.82 2650.87 734.833 2652.25C740.231 2654.64 742.617 2656.77 741.361 2658.03C741.11 2658.4 593.475 2658.53 413.576 2658.53C116.046 2658.53 86.042 2658.28 83.1546 2656.52L80.1416 2654.51L80.1416 1494.7C80.1416 676.557 80.5183 334.262 81.5226 332.504C82.2758 331.124 84.0334 329.492 85.5399 328.864C88.6784 327.609 1493.47 327.483 1499.37 328.739ZM1806.7 366.018C1805.56 368.278 1784.35 391.123 1765.52 410.202C1744.18 432.042 1716.05 458.151 1714.05 458.151C1713.54 458.151 1706.51 451.749 1698.48 443.967C1683.41 429.406 1668.6 415.976 1654.41 404.302C1649.89 400.662 1644.87 396.018 1643.12 394.135C1634.7 384.972 1620.52 367.65 1620.52 366.521C1620.52 365.767 1628.68 365.14 1641.61 365.014C1669.86 364.512 1807.07 365.391 1806.7 366.018ZM1562.39 378.194C1585.37 400.034 1590.39 404.553 1611.1 421.875C1641.48 447.23 1654.41 458.527 1654.41 459.657C1654.41 460.159 1607.71 460.661 1550.72 460.661C1490.71 460.661 1447.27 460.159 1447.52 459.531C1448.03 458.15 1481.67 427.272 1497.24 413.967C1508.66 404.051 1543.94 368.027 1543.94 366.27C1543.94 365.642 1545.07 365.265 1546.32 365.265C1547.71 365.265 1554.74 370.914 1562.39 378.194ZM2138.5 366.771C2139.63 367.901 2048.74 459.908 2046.1 460.284C2045.09 460.535 2038.32 455.515 2031.03 449.239C2023.75 442.963 2012.45 433.548 2005.93 428.277C1999.4 423.005 1991.74 416.603 1988.98 414.093C1958.72 386.729 1939.52 368.654 1938.89 367.148C1938.26 365.391 1949.31 365.265 2037.81 365.516C2092.67 365.767 2137.99 366.269 2138.5 366.771ZM2318.4 368.529L2327.69 369.282L2326.93 383.215C2326.43 390.997 2326.05 405.055 2326.05 414.469C2326.05 425.39 2325.55 431.791 2324.8 431.791C2324.04 431.791 2317.77 426.519 2310.61 420.118C2303.58 413.716 2293.92 405.181 2289.02 401.164C2282.11 395.516 2253.24 368.027 2253.24 367.273C2253.24 366.771 2310.36 367.901 2318.4 368.529ZM1906.12 396.018C1918.55 407.691 1937.13 425.641 1947.55 435.682C1957.84 445.724 1969.39 456.393 1973.03 459.28C1976.55 462.293 1979.56 465.18 1979.56 465.807C1979.56 467.188 1777.82 467.313 1776.94 465.933C1776.56 465.305 1779.83 462.418 1784.1 459.406C1794.39 452.251 1811.46 436.687 1842.1 406.562C1875.11 374.052 1878.75 370.914 1881.52 373.047C1882.65 373.926 1893.69 384.219 1906.12 396.018ZM2525.16 375.558C2524.78 377.19 2524.41 397.524 2524.41 420.871V463.171L2487.12 462.669C2466.53 462.418 2435.15 462.042 2417.45 462.042L2385.06 461.916V417.356V372.796H2455.49H2525.91L2525.16 375.558ZM2712.47 373.675L2731.55 374.428V418.109V461.791L2659.11 462.167C2619.19 462.418 2585.04 462.293 2583.16 462.042L2579.64 461.665V438.067C2579.64 425.139 2580.02 405.181 2580.52 393.758L2581.28 372.796H2637.39C2668.28 372.796 2702.05 373.173 2712.47 373.675ZM2202.77 378.57C2203.4 379.574 2213.07 389.867 2224.49 401.29C2242.44 419.49 2260.77 436.31 2285 456.77C2288.64 459.782 2291.66 463.046 2291.91 463.799C2292.16 465.054 2279.73 465.556 2236.67 466.184C2190.34 466.812 2123.68 466.686 2114.64 465.933C2112.89 465.682 2114.14 463.674 2120.29 456.644C2129.33 446.477 2199.38 376.687 2200.76 376.562C2201.27 376.562 2202.15 377.441 2202.77 378.57ZM2505.45 519.028L2525.66 519.907L2525.54 569.111C2525.41 596.098 2525.03 619.821 2524.53 621.704L2523.78 625.219L2519.26 621.704C2504.57 610.282 2483.36 592.081 2463.52 573.881C2436.15 548.776 2407.53 520.785 2408.16 519.781C2408.91 518.652 2483.1 518.024 2505.45 519.028ZM2391.96 571.998C2393.59 574.006 2396.86 577.772 2399.12 580.533C2413.3 597.479 2447.58 635.26 2466.16 654.214C2478.08 666.515 2488.88 677.937 2490.01 679.695C2491.89 682.582 2491.89 683.083 2489.88 686.222C2488.63 688.104 2477.71 699.276 2465.53 711.075C2453.35 722.748 2431.01 744.965 2415.81 760.405C2400.62 775.718 2387.82 788.27 2387.32 788.27C2385.81 788.27 2386.06 568.609 2387.57 568.609C2388.32 568.609 2390.2 570.115 2391.96 571.998ZM2525.66 844.503C2525.66 907.138 2525.16 959.104 2524.53 960.108C2523.78 961.238 2523.15 961.363 2522.65 960.359C2522.15 959.606 2515.24 953.455 2507.21 946.803C2485.36 928.602 2467.79 912.536 2451.34 896.343C2437.03 882.034 2416.07 857.934 2412.93 852.035C2411.17 848.771 2408.03 852.286 2449.08 810.236C2480.09 778.354 2492.65 764.923 2508.46 746.472C2516.62 737.057 2523.9 729.526 2524.53 729.903C2525.16 730.405 2525.66 775.844 2525.66 844.503ZM2393.72 909.648C2419.2 940.276 2429.37 951.447 2468.29 991.99C2481.85 1006.3 2493.02 1018.48 2493.02 1019.1C2493.02 1019.73 2482.1 1030.4 2468.79 1042.83C2455.49 1055.25 2440.55 1069.94 2435.65 1075.34C2430.75 1080.86 2417.57 1093.91 2406.52 1104.46L2386.31 1123.66V1013.71C2386.31 945.547 2386.82 903.749 2387.44 903.749C2388.2 903.749 2390.96 906.385 2393.72 909.648ZM2525.66 1175.5C2525.66 1238.64 2525.41 1290.35 2525.03 1290.35C2522.4 1290.35 2479.59 1253.2 2457.24 1231.48C2434.77 1209.64 2412.68 1184.54 2412.68 1180.9C2412.68 1180.15 2426.61 1165.33 2443.81 1148.01C2483.86 1107.34 2490.64 1100.06 2508.46 1078.47C2516.62 1068.68 2523.9 1060.65 2524.53 1060.65C2525.16 1060.65 2525.66 1105.59 2525.66 1175.5ZM2394.85 1240.4C2398.87 1244.79 2407.53 1254.45 2414.06 1262.11C2425.73 1275.79 2470.93 1321.48 2487 1335.79L2495.41 1343.32L2441.93 1396.29C2412.55 1425.29 2388.07 1449.26 2387.44 1449.52C2386.82 1449.76 2386.31 1403.82 2386.31 1341.31C2386.31 1281.57 2386.56 1232.61 2386.82 1232.61C2387.07 1232.61 2390.71 1236.13 2394.85 1240.4ZM1803.56 1370.69C1820.5 1376.21 1841.09 1382.74 1849.38 1385.25C1857.79 1387.63 1864.82 1389.77 1865.07 1390.14C1866.2 1391.27 1863.69 1393.15 1859.3 1394.66C1856.78 1395.41 1841.72 1401.44 1825.78 1407.97C1767.78 1431.81 1732.12 1446.63 1697.1 1461.06C1659.31 1476.75 1590.14 1504.37 1532.64 1526.96C1495.48 1541.52 1473.13 1550.56 1424.05 1570.89C1406.85 1578.05 1385.88 1586.46 1377.6 1589.72C1369.31 1592.98 1347.59 1601.9 1329.27 1609.43C1296.75 1622.98 1207.24 1658.88 1148.49 1681.98C1132.29 1688.38 1101.79 1700.55 1080.7 1708.96C1001.86 1740.72 988.926 1745.87 958.294 1757.92C911.468 1776.24 858.49 1797.21 830.244 1808.75C816.434 1814.4 795.595 1822.69 783.794 1827.21C749.772 1840.26 703.448 1858.84 654.111 1879.42C645.951 1882.81 644.319 1883.06 639.674 1881.93C631.263 1879.8 465.675 1823.56 462.913 1821.93C462.16 1821.43 462.035 1820.55 462.662 1819.92C463.29 1819.3 475.97 1814.65 490.783 1809.51C532.714 1795.07 616.826 1765.95 643.189 1756.66C656.371 1752.14 674.072 1745.87 682.734 1742.86C691.396 1739.97 715.374 1731.43 736.089 1724.03C756.803 1716.75 791.577 1704.57 813.296 1697.04C835.014 1689.51 860.248 1680.85 869.161 1677.58C878.2 1674.32 899.04 1667.04 915.611 1661.27C932.182 1655.49 957.667 1646.58 972.104 1641.43C986.667 1636.16 1014.29 1626.5 1033.62 1619.84C1073.79 1606.04 1091.12 1599.89 1108.94 1593.49C1115.85 1590.97 1130.03 1585.83 1140.33 1582.19C1150.75 1578.55 1180.12 1568.13 1205.61 1558.97C1231.22 1549.93 1267.37 1537.13 1285.95 1530.47C1304.66 1523.95 1329.52 1515.16 1341.19 1511.02C1352.99 1506.88 1374.46 1499.34 1388.9 1494.32C1403.46 1489.3 1434.72 1478.26 1458.57 1469.85C1517.83 1448.89 1541.8 1440.48 1587.88 1424.66C1651.9 1402.69 1753.34 1366.42 1763.01 1361.9C1768.03 1359.64 1773.3 1360.77 1803.56 1370.69ZM2525.41 1499.85C2525.54 1560.1 2525.16 1610.18 2524.66 1611.31C2523.78 1612.82 2519.76 1610.05 2504.45 1597.25C2479.71 1576.54 2460.51 1558.97 2443.94 1541.77C2430.13 1527.46 2411.42 1505.62 2411.42 1503.86C2411.42 1503.36 2421.72 1493.07 2434.39 1481.14C2469.29 1447.76 2502.19 1413.99 2517.38 1395.41C2520.14 1392.15 2522.9 1389.64 2523.65 1389.89C2524.66 1390.27 2525.16 1423.28 2525.41 1499.85ZM1946.29 1416.5C2002.03 1433.82 2052.88 1450.52 2053.26 1451.77C2053.51 1452.4 2043.84 1457.17 2032.04 1462.19C2004.04 1474.24 1988.48 1481.14 1847.75 1543.53C1783.22 1572.15 1719.7 1600.26 1706.51 1606.04C1682.03 1616.71 1545.32 1677.84 1520.71 1689.26C1508.91 1694.66 1397.31 1745.24 1306.04 1786.41C1291.6 1793.06 1262.98 1805.99 1242.64 1815.41C1222.31 1824.69 1184.77 1841.64 1159.16 1853.06C1118.36 1871.26 1095.38 1881.56 1075.67 1890.59C1061.36 1897.12 983.654 1931.89 975.242 1935.53C957.165 1943.31 921.888 1959.13 912.472 1963.65C907.325 1966.16 901.425 1968.16 899.291 1968.16C897.156 1968.16 854.975 1954.61 805.638 1937.91C756.3 1921.35 711.608 1906.28 706.21 1904.53C698.301 1901.89 696.794 1901.01 697.924 1899.63C698.678 1898.63 700.184 1897.87 701.188 1897.87C704.327 1897.87 768.729 1872.02 811.036 1853.69C820.451 1849.67 852.464 1837.25 881.966 1826.2C934.567 1806.49 994.576 1782.65 1067.51 1752.52C1105.18 1737.08 1124.26 1729.42 1159.79 1715.87C1213.39 1695.41 1453.17 1599.64 1565.28 1553.95C1580.85 1547.67 1611.35 1535.37 1633.07 1526.83C1712.79 1495.08 1765.14 1474.12 1803.81 1458.3C1825.53 1449.26 1853.02 1438.09 1864.69 1433.45C1876.49 1428.68 1893.94 1421.4 1903.61 1417.25C1916.79 1411.61 1922.19 1409.85 1924.95 1410.35C1927.09 1410.73 1936.63 1413.49 1946.29 1416.5ZM2127.95 1517.8C2128.2 1519.43 2128.08 1541.52 2127.7 1566.87L2127.07 1613.19L2112.64 1619.09C2095.81 1626.12 2036.06 1653.99 1918.05 1709.84C1910.77 1713.36 1898.34 1719.13 1890.43 1722.77C1882.52 1726.41 1863.82 1735.07 1849 1742.23C1737.9 1794.95 1697.35 1813.77 1543.94 1883.69C1515.94 1896.37 1489.45 1908.54 1484.94 1910.68C1480.42 1912.81 1470.87 1917.2 1463.59 1920.47C1456.31 1923.73 1426.18 1937.66 1396.43 1951.47C1366.8 1965.28 1317.84 1988 1287.84 2001.8C1232.22 2027.41 1172.47 2055.4 1068.14 2104.61C1010.52 2131.84 973.485 2148.91 972.229 2148.91C971.853 2148.91 971.476 2122.68 971.476 2090.67V2032.56L993.822 2023.39C1006 2018.37 1033.62 2006.32 1054.96 1996.66C1076.43 1987.12 1108.31 1972.81 1125.89 1965.03C1143.47 1957.24 1167.19 1946.45 1178.62 1941.18C1190.04 1935.91 1214.27 1924.86 1232.6 1916.7C1250.93 1908.54 1277.42 1896.74 1291.6 1890.34C1305.79 1883.94 1327.26 1874.4 1339.31 1869C1351.36 1863.61 1365.3 1857.46 1370.07 1855.2C1374.96 1852.94 1385.63 1848.17 1393.92 1844.53C1402.2 1840.89 1424.8 1830.72 1444.13 1821.93C1463.47 1813.15 1497.36 1797.83 1519.46 1788.04C1541.55 1778.13 1572.94 1763.94 1589.13 1756.66C1680.4 1715.11 1689.69 1710.97 1754.85 1681.6C1783.47 1668.8 1794.27 1664.03 1866.58 1631.77C1885.53 1623.36 1909.26 1612.82 1919.3 1608.3C1929.35 1603.78 1953.07 1593.11 1972.03 1584.7C1990.99 1576.29 2023 1561.85 2042.96 1552.69C2087.03 1532.48 2125.57 1515.16 2126.7 1515.16C2127.2 1515.03 2127.7 1516.29 2127.95 1517.8ZM2399.62 1568.88C2411.42 1584.45 2463.65 1637.17 2489 1659.13C2492.52 1662.27 2495.53 1665.53 2495.53 1666.41C2495.53 1668.92 2447.7 1717.12 2423.72 1738.71C2398.99 1761.06 2389.2 1768.96 2387.44 1767.83C2386.19 1767.08 2385.81 1561.73 2387.07 1558.47C2387.69 1556.71 2388.07 1556.71 2390.71 1558.72C2392.21 1559.85 2396.23 1564.49 2399.62 1568.88ZM2127.95 1702.69L2127.7 1751.01L2116.65 1756.54C2110.63 1759.55 2093.93 1767.46 2079.37 1774.24C2030.91 1796.7 2017.98 1802.73 1992.12 1815.03C1977.93 1821.81 1950.06 1834.99 1929.97 1844.53C1910.01 1854.07 1875.49 1870.38 1853.4 1880.93C1811.59 1900.89 1807.7 1902.64 1770.54 1919.84C1758.11 1925.61 1733.63 1937.04 1716.18 1945.45C1698.73 1953.86 1684.17 1960.63 1684.04 1960.63C1683.79 1960.63 1674.12 1965.15 1662.45 1970.8C1650.77 1976.45 1637.34 1982.85 1632.44 1985.11C1601.94 1999.42 1544.94 2026.53 1500.63 2047.87C1413.63 2089.79 1410.62 2091.18 1410.36 2091.18C1410.11 2091.18 1398.81 2096.57 1385.26 2103.1C1371.57 2109.63 1360.27 2115.02 1360.02 2115.02C1359.77 2115.02 1340.69 2124.31 1317.59 2135.61C1294.49 2147.03 1270.76 2158.58 1264.99 2161.22C1254.07 2166.36 1182.76 2201.13 1114.09 2234.77C1092.12 2245.57 1073.92 2254.35 1073.67 2254.35C1073.41 2254.35 1064 2258.87 1052.83 2264.52C1030.48 2275.57 1004.24 2287.99 984.909 2296.53C976.498 2300.29 972.481 2301.42 971.978 2300.42C971.727 2299.54 971.602 2274.69 971.727 2245.06C972.104 2198.75 972.355 2191.09 973.987 2190.21C974.991 2189.58 988.55 2183.31 1004.12 2176.03C1042.66 2158.2 1071.91 2144.52 1091.37 2135.11C1113.71 2124.31 1139.45 2112.01 1152.25 2105.99C1158.15 2103.23 1168.83 2098.08 1176.11 2094.69C1183.39 2091.18 1204.23 2081.38 1222.56 2072.97C1240.89 2064.44 1266.24 2052.64 1279.05 2046.62C1291.85 2040.59 1305.41 2034.31 1309.18 2032.56C1312.95 2030.8 1327.26 2024.02 1340.94 2017.62C1354.62 2011.09 1366.05 2005.82 1366.17 2005.82C1366.43 2005.82 1373.83 2002.43 1382.62 1998.29C1391.41 1994.02 1405.22 1987.62 1413.25 1983.98C1421.29 1980.21 1431.58 1975.44 1436.23 1973.31C1459.2 1962.52 1485.44 1950.47 1507.53 1940.55C1520.97 1934.53 1536.78 1927.25 1542.68 1924.48C1548.58 1921.72 1571.43 1911.3 1593.53 1901.26C1615.62 1891.22 1640.48 1879.8 1648.76 1875.91C1667.22 1867.12 1721.58 1842.02 1750.45 1828.84C1762.25 1823.44 1779.2 1815.66 1788.11 1811.26C1797.15 1807 1815.48 1798.46 1828.91 1792.18C1854.02 1780.64 1880.39 1768.21 1958.22 1731.56C2063.67 1681.73 2123.31 1654.61 2127.07 1654.36C2127.95 1654.36 2128.2 1671.06 2127.95 1702.69ZM2525.66 1860.22V2014.61H2503.19H2480.84L2479.97 1969.04C2478.96 1918.08 2477.08 1865.87 2475.95 1858.59C2474.57 1850.05 2469.55 1846.03 2451.84 1839.13C2443.06 1835.74 2430.13 1830.97 2423.1 1828.71C2415.19 1826.2 2410.17 1823.82 2410.17 1822.81C2410.17 1821.93 2417.07 1814.65 2425.61 1806.62C2452.97 1780.51 2509.84 1723.02 2516.75 1714.24C2520.52 1709.59 2524.03 1705.83 2524.66 1705.83C2525.16 1705.83 2525.66 1775.24 2525.66 1860.22ZM2234.91 1851.93C2271.57 1863.98 2303.08 1874.28 2305.09 1874.78C2306.97 1875.15 2308.73 1876.03 2309.13 1876.53C2309.48 1877.16 2300.57 1882.06 2289.4 1887.58C2264.41 1899.88 2195.99 1934.9 2162.85 1952.47C2131.72 1968.79 2110.12 1979.96 2041.71 2014.98C2011.32 2030.55 1978.31 2047.62 1968.26 2052.77C1958.22 2058.04 1938.39 2068.2 1924.2 2075.48C1890.3 2092.56 1866.45 2104.86 1836.45 2120.67C1699.48 2192.85 1475.52 2307.07 1307.3 2390.42C1239.25 2424.06 1197.2 2445.77 1175.98 2457.82L1165.31 2463.97L1130.16 2452.17C1096.51 2440.88 1007.38 2408.62 985.411 2399.83C979.511 2397.45 974.615 2394.94 974.342 2394.18C974.113 2393.3 978.13 2390.92 983.403 2388.78C1018.68 2373.97 1084.09 2343.72 1161.04 2306.44C1184.89 2294.9 1218.54 2278.83 1235.74 2270.67C1307.3 2236.9 1317.46 2232.13 1346.84 2217.95C1396.55 2193.98 1417.27 2184.06 1417.9 2184.06C1418.27 2184.06 1432.21 2177.53 1448.91 2169.5C1465.6 2161.47 1493.47 2148.29 1510.67 2140.13C1528 2131.97 1551.09 2121.05 1562.14 2115.65C1585.37 2104.48 1633.45 2081.51 1646.25 2075.48C1651.15 2073.23 1671.11 2063.56 1690.82 2054.15C1710.53 2044.61 1735.89 2032.56 1747.31 2027.16C1758.74 2021.76 1779.58 2011.97 1793.76 2005.19C1807.95 1998.54 1831.93 1987.24 1847.12 1980.09C1862.31 1973.06 1885.16 1962.27 1897.96 1956.24C1910.77 1950.22 1929.72 1941.3 1940.02 1936.53C1950.44 1931.64 1969.02 1922.85 1981.45 1916.95C2002.79 1906.91 2009.82 1903.65 2048.61 1885.07C2057.27 1880.93 2081.88 1869.51 2103.22 1859.59C2124.69 1849.67 2147.41 1839 2153.94 1835.87C2160.47 1832.73 2166.37 1830.09 2166.99 1830.09C2167.62 1830.09 2198.25 1839.88 2234.91 1851.93ZM365.996 1871.64C371.395 1873.77 384.325 1878.42 394.62 1882.18C430.775 1894.99 473.71 1911.93 485.762 1918.08C493.796 1922.1 503.337 1928.5 510.87 1934.9C527.818 1949.21 567.488 1986.37 585.44 2004.44C608.163 2027.54 618.458 2035.82 644.444 2051.89C676.959 2071.97 702.569 2084.9 761.824 2111.26C822.335 2138.12 842.672 2146.4 882.343 2159.96C887.49 2161.72 892.135 2163.73 892.637 2164.48C893.139 2165.23 893.641 2177.66 893.641 2192.09V2218.2L890.879 2217.57C889.247 2217.2 871.295 2210.67 850.958 2202.89C830.62 2195.23 802.876 2184.94 789.443 2180.17C776.01 2175.27 762.201 2170.25 758.686 2169C748.392 2165.11 714.37 2152.68 702.82 2148.66C665.033 2135.23 613.436 2097.2 560.332 2043.6C525.307 2008.08 503.463 1990.26 475.718 1974.19C449.983 1959.25 409.81 1945.7 360.724 1935.15L353.191 1933.65L352.815 1919.84C352.313 1901.89 353.819 1867.75 355.074 1867.75C355.702 1867.75 360.598 1869.51 365.996 1871.64ZM2399.24 1979.96C2399.75 2009.71 2399.75 2034.31 2399.24 2034.82C2398.62 2035.19 2393.47 2037.7 2387.57 2040.34C2375.64 2045.61 2329.82 2068.33 2306.59 2080.51C2266.8 2101.22 2226.88 2122.05 2181.05 2145.78C2153.44 2160.09 2128.08 2173.39 2124.56 2175.27C2121.17 2177.16 2109.5 2183.18 2098.83 2188.83C2042.96 2217.57 1980.69 2250.08 1975.17 2253.1C1971.78 2254.98 1953.7 2264.27 1935 2273.81C1899.85 2291.76 1831.17 2327.03 1812.59 2336.82C1794.89 2346.23 1664.58 2413.64 1633.7 2429.45C1617.88 2437.61 1579.97 2457.19 1549.59 2473.13C1519.21 2488.95 1486.19 2506.15 1476.15 2511.42C1466.1 2516.56 1452.04 2523.97 1444.76 2527.99C1437.48 2531.88 1422.04 2540.16 1410.24 2546.19C1398.56 2552.21 1380.74 2561.63 1370.69 2567.02C1337.43 2584.85 1318.85 2594.39 1284.7 2611.71C1266.12 2621 1241.89 2633.42 1231.09 2639.2C1220.3 2644.97 1210.76 2649.74 1210 2649.74C1208.62 2649.74 1208.5 2605.94 1209.88 2562.76L1210.63 2537.9L1229.46 2528.11C1239.88 2522.84 1256.83 2513.68 1267.12 2507.9C1277.54 2502.13 1325.75 2477.28 1374.46 2452.67C1423.17 2428.07 1469.24 2404.47 1476.78 2400.33C1484.43 2396.19 1512.68 2381.63 1539.55 2367.95C1566.54 2354.27 1598.17 2337.95 1609.85 2331.55C1621.65 2325.27 1638.6 2316.23 1647.51 2311.46C1656.55 2306.82 1669.23 2299.92 1675.76 2296.28C1694.08 2286.11 1725.09 2270.04 1770.54 2247.2C1793.39 2235.77 1830.3 2216.95 1852.77 2205.4C1875.24 2193.85 1907.13 2177.41 1923.7 2169C1979.81 2140.25 2032.79 2112.89 2052.38 2102.47C2063.05 2096.82 2087.15 2084.27 2105.73 2074.61C2171.26 2040.59 2200.26 2025.4 2233.15 2007.7C2342.12 1949.21 2390.71 1924.86 2396.36 1925.86C2397.99 1926.12 2398.36 1933.65 2399.24 1979.96ZM573.891 1940.8C575.397 1941.55 589.332 1946.7 604.899 1952.1C620.466 1957.62 643.566 1965.78 656.371 1970.3C669.176 1974.69 694.033 1983.35 711.608 1989.5C729.184 1995.53 751.781 2003.44 761.824 2007.08C771.867 2010.59 789.318 2016.87 800.742 2020.88C812.166 2024.9 837.651 2034.06 857.611 2041.09L893.641 2054.02V2088.92C893.641 2117.66 893.39 2123.81 891.884 2123.81C889.875 2123.81 847.443 2108.12 821.205 2097.58C792.958 2086.28 700.435 2043.23 673.319 2028.67C649.466 2015.86 641.431 2010.59 626.115 1997.29C612.934 1985.86 568.493 1941.81 568.493 1940.17C568.493 1938.92 570.752 1939.04 573.891 1940.8ZM369.26 1972.06C376.291 1974.19 386.836 1977.33 392.736 1979.09C410.312 1984.36 446.468 1998.16 458.519 2004.19C488.147 2019.13 504.09 2031.55 542.004 2069.46C559.454 2087.03 575.146 2102.22 576.778 2103.35C578.41 2104.35 579.791 2105.74 579.791 2106.36C579.791 2108.5 575.146 2107.49 563.345 2103.1C515.012 2085.28 415.836 2050.26 373.905 2036.32C364.615 2033.18 356.079 2030.17 354.949 2029.54C353.191 2028.67 352.94 2024.65 352.689 1998.29C352.438 1971.05 352.564 1968.16 354.447 1968.16C355.577 1968.16 362.356 1969.92 369.26 1972.06ZM2401.75 2117.16C2402.13 2139.75 2402.26 2158.71 2401.88 2159.08C2401.63 2159.58 2383.93 2168.87 2362.71 2179.79C2341.5 2190.59 2315.76 2204.02 2305.34 2209.54C2281.99 2221.97 2248.22 2239.79 2219.34 2254.98C2182.06 2274.56 2127.95 2303.68 2078.11 2330.79C2051.87 2345.1 2022 2361.3 2011.58 2366.69C2001.28 2372.09 1984.58 2380.88 1974.54 2386.15C1964.5 2391.42 1949.56 2399.33 1941.27 2403.72C1932.99 2408.11 1907.63 2421.92 1884.78 2434.47C1828.79 2465.48 1757.98 2503.51 1665.71 2552.46C1652.91 2559.24 1639.98 2566.15 1636.84 2567.9C1629.68 2571.79 1587 2594.76 1572.19 2602.67C1539.29 2620.24 1488.83 2647.98 1482.05 2652.38C1477.78 2655.14 1473.26 2657.65 1471.75 2657.9C1467.11 2658.91 1272.77 2659.16 1273.15 2658.15C1273.27 2657.52 1282.44 2652.5 1293.49 2646.73C1304.53 2641.08 1318.97 2633.55 1325.5 2630.04C1332.03 2626.52 1346.21 2619.24 1356.88 2613.59C1367.56 2608.07 1397.56 2592.5 1423.42 2579.2C1449.28 2565.77 1487.19 2545.94 1507.53 2535.27C1527.87 2524.6 1567.16 2504.14 1594.78 2489.95C1622.4 2475.77 1657.68 2457.57 1673.25 2449.54C1688.81 2441.5 1711.16 2429.96 1722.83 2423.8C1734.63 2417.78 1759.99 2404.6 1779.33 2394.68C1798.66 2384.64 1829.79 2368.7 1848.37 2359.16C1867.08 2349.62 1896.46 2334.31 1913.65 2325.27C1930.98 2316.11 1962.62 2299.79 1983.96 2288.87C2005.42 2277.95 2035.05 2262.51 2049.87 2254.6C2064.68 2246.7 2095.44 2230.63 2118.16 2218.96C2140.88 2207.28 2160.59 2196.99 2162.1 2195.98C2165.36 2193.98 2335.34 2105.99 2358.69 2094.31C2380.29 2083.39 2396.48 2076.24 2398.99 2076.11C2400.75 2076.11 2401.13 2080.76 2401.75 2117.16ZM459.524 2151.3C475.593 2156.7 499.194 2164.98 512 2169.63C524.805 2174.14 548.783 2182.81 565.354 2188.7C581.925 2194.48 605.904 2203.14 618.709 2207.91C631.514 2212.68 655.241 2221.34 671.435 2227.11C687.63 2233.01 732.825 2250.08 771.867 2265.02C810.91 2280.08 853.217 2296.02 866.023 2300.42C878.828 2304.94 889.624 2308.95 890.126 2309.46C890.628 2309.83 891.382 2322.26 891.758 2337.07L892.637 2363.93L889.624 2363.18C886.611 2362.43 876.693 2358.91 803.88 2332.43C788.69 2326.9 753.915 2313.97 726.673 2303.56C647.206 2273.56 617.453 2262.39 608.038 2259C599.752 2255.98 510.995 2222.22 468.06 2205.65C457.39 2201.51 433.914 2192.22 415.961 2184.94C398.009 2177.78 381.689 2171.51 379.806 2171.01C377.797 2170.5 376.416 2169.5 376.793 2168.62C377.295 2167.12 426.13 2141.51 428.766 2141.38C429.645 2141.38 443.455 2145.78 459.524 2151.3ZM324.443 2241.05C338.88 2246.07 352.94 2251.21 355.702 2252.22C358.464 2253.35 376.793 2260.13 396.503 2267.41C416.212 2274.69 446.091 2285.73 463.039 2292.01C506.225 2308.07 590.713 2339.08 620.592 2349.75C634.401 2354.77 651.977 2362.05 659.509 2365.94C685.245 2379.5 725.92 2406.86 758.058 2432.34C784.17 2453.05 792.079 2460.21 819.573 2487.82C843.551 2512.05 854.724 2521.21 894.52 2550.33C907.953 2559.99 933.814 2575.94 959.801 2590.37C990.182 2607.19 1017.8 2618.61 1070.03 2635.93C1124.64 2653.88 1127.77 2655.01 1127.77 2657.27C1127.77 2658.65 1114.84 2658.91 1054.96 2658.65L982.147 2658.4L974.615 2655.27C964.823 2651.25 930.174 2637.82 908.706 2629.66C899.416 2626.14 884.477 2619.49 875.438 2614.97C857.737 2606.19 811.664 2576.19 794.465 2562.25C788.564 2557.48 777.893 2548.95 770.612 2543.18C763.331 2537.4 741.612 2516.69 722.279 2497.23C680.223 2454.93 664.656 2442.13 634.276 2424.68C622.977 2418.28 590.839 2402.22 576.151 2395.56C570.878 2393.3 560.081 2388.41 552.172 2384.89C503.086 2362.8 450.736 2345.1 387.715 2329.29C350.932 2320 345.408 2318.74 318.291 2313.97C305.361 2311.71 294.439 2309.58 294.062 2309.2C293.685 2308.83 293.685 2291.26 294.187 2270.17C294.941 2241.17 295.568 2231.76 296.698 2231.76C297.577 2231.76 310.006 2235.9 324.443 2241.05ZM310.257 2349.12C350.932 2355.27 380.434 2362.43 427.26 2377.99C473.333 2393.18 502.333 2404.35 542.129 2421.92C592.722 2444.39 620.843 2459.08 648.838 2477.53C666.037 2488.95 668.799 2491.34 700.686 2523.34C719.141 2542.05 734.206 2557.36 734.206 2557.61C734.206 2559.12 728.305 2557.61 720.773 2554.22C716.128 2552.09 698.929 2544.93 682.734 2538.41C666.539 2531.88 645.951 2523.47 636.912 2519.83C627.999 2516.19 607.033 2507.78 590.462 2501.25C573.891 2494.72 551.294 2485.56 540.246 2481.17C502.207 2465.6 441.069 2441.5 378.927 2417.53C352.313 2407.24 324.945 2396.69 318.04 2393.93C311.135 2391.3 302.85 2388.16 299.586 2386.9L293.56 2384.64V2365.94C293.56 2350.12 293.811 2347.24 295.443 2347.24C296.447 2347.24 303.101 2348.12 310.257 2349.12ZM793.335 2409.87C799.863 2412.51 819.573 2420.16 837.148 2426.69C854.724 2433.22 880.209 2443.01 893.641 2448.28C907.074 2453.55 925.529 2460.71 934.442 2464.22C943.481 2467.61 962.688 2475.14 977.126 2480.92C1047.05 2508.53 1090.61 2524.72 1113.71 2531.88L1130.91 2537.28V2579.07C1130.91 2612.59 1130.54 2620.87 1129.28 2620.87C1128.4 2620.87 1120.62 2617.99 1111.96 2614.47C1103.42 2610.96 1084.59 2603.55 1070.03 2598.03C1033.24 2584.22 1027.97 2581.96 1000.48 2568.66C976.121 2556.86 956.914 2546.56 938.836 2535.77C924.022 2526.86 892.637 2505.64 883.598 2498.62C875.815 2492.46 834.386 2456.06 805.01 2429.45C797.478 2422.55 788.564 2414.89 785.3 2412.51C780.028 2408.49 777.768 2404.98 780.53 2404.98C781.157 2404.98 786.932 2407.24 793.335 2409.87Z" fill="black"/>
<path d="M1813.85 675.426C1798.03 680.572 1743.42 697.392 1720.32 704.296C1647.89 726.136 1576.2 754.253 1533.9 777.474C1470.87 812.118 1419.28 862.954 1391.16 918.183C1380.23 939.522 1375.34 953.078 1368.94 978.433C1362.16 1005.67 1361.28 1015.46 1361.28 1060.02C1361.28 1105.96 1362.53 1121.28 1370.19 1167.72C1375.34 1198.85 1375.34 1203.62 1371.32 1221.06C1360.27 1267.51 1356.88 1293.11 1359.39 1313.32C1361.53 1332.15 1366.05 1338.3 1379.86 1342.07C1385.13 1343.45 1386.26 1343.32 1390.15 1341.31C1392.41 1340.06 1394.67 1338.18 1395.17 1337.05C1395.55 1336.04 1396.68 1326.63 1397.81 1316.21C1399.82 1295.75 1401.45 1287.59 1406.35 1272.4C1410.61 1259.73 1422.54 1235.12 1426.18 1231.73C1428.19 1229.98 1433.46 1228.22 1442.88 1226.34C1469.12 1221.06 1525.86 1204.5 1561.51 1191.57C1629.18 1167.09 1669.6 1143.74 1719.82 1099.81C1789.12 1039.31 1836.95 941.279 1848.5 836.595C1852.64 799.817 1852.01 703.166 1847.62 682.706C1845.99 674.924 1840.84 670.28 1834.19 670.28C1831.68 670.405 1822.51 672.665 1813.85 675.426ZM1694.59 854.419C1694.59 855.046 1690.82 858.812 1686.18 862.954C1666.84 880.276 1649.14 898.225 1628.8 921.196C1554.36 1005.29 1545.7 1015.46 1492.34 1081.49C1457.69 1124.29 1432.84 1153.53 1430.83 1153.53C1428.32 1153.53 1433.21 1141.99 1450.66 1107.09C1464.09 1079.98 1475.39 1060.65 1492.22 1036.17C1519.83 995.63 1536.28 975.421 1565.28 946.3C1599.8 911.782 1629.93 889.062 1677.64 862.076C1692.58 853.54 1694.59 852.661 1694.59 854.419Z" fill="black"/>
</g>
<defs>
<clipPath id="clip0_8148_4">
<rect width="3000" height="2742" fill="white"/>
</clipPath>
</defs>
</svg>
