<svg width="3662" height="3346" viewBox="0 0 3662 3346" fill="none" xmlns="http://www.w3.org/2000/svg">
<path d="M2963.46 1.07213C2962.24 1.53164 2944.61 9.34339 2924.39 18.3804C2904.16 27.4175 2880.41 37.9863 2871.52 41.8155C2862.63 45.4916 2841.17 54.9881 2823.71 62.4935C2806.39 70.152 2765.63 87.7663 2733.29 101.705C2701.11 115.49 2667.4 130.041 2658.51 134.024C2649.62 137.853 2607.63 155.927 2565.03 174.154C2451.33 222.556 2387.42 250.127 2337.47 271.877C2313.1 282.599 2289.96 292.402 2286.13 293.78C2279.69 296.231 2194.8 296.384 1148.3 297.15C20.8985 297.916 17.3739 297.916 12.1636 300.979C9.25202 302.664 5.5742 306.034 3.73529 308.331L0.517194 312.62L0.057466 1813.23C-0.0957766 2638.51 0.057466 3316.13 0.517194 3319.04C1.74313 3325.78 16.4544 3341.25 24.1166 3344.01C28.5606 3345.69 350.37 3346 1755.91 3346L3482.19 3346L3490.31 3341.4C3501.19 3335.43 3511.3 3324.1 3512.68 3316.59C3514.37 3306.33 3513.76 1269.47 3512.07 1260.44C3510.08 1249.87 3501.04 1236.7 3492.76 1232.41C3487.55 1229.65 3484.03 1229.19 3466.1 1229.19C3447.1 1229.19 3444.8 1229.5 3436.98 1233.17C3428.86 1237 3422.12 1243.59 3416.91 1252.93C3415.07 1256.15 3414.61 1404.42 3414 2250.07L3413.23 3243.38L2718.27 3244.14C2336.09 3244.6 2023.01 3244.75 2022.71 3244.6C2021.17 3243.53 2028.07 3237.86 2034.51 3234.95C2038.49 3233.11 2048.91 3227.45 2057.8 3222.24C2074.2 3212.9 2106.99 3194.82 2171.96 3159.44C2192.19 3148.56 2222.23 3132.17 2238.63 3123.14C2293.95 3092.66 2419.3 3024.8 2457.76 3004.43C2471.71 2997.08 2490.25 2987.12 2499.14 2982.22C2508.03 2977.47 2522.12 2969.81 2530.55 2965.37C2546.95 2956.64 2576.53 2940.87 2716.74 2865.51C2842.25 2797.96 2926.38 2753.08 2965.76 2732.55C3009.9 2709.43 3020.01 2702.07 3023.07 2690.43C3024.61 2684.61 3027.36 2658.57 3028.28 2643.72L3028.59 2636.82L3134.48 2636.36L3240.37 2636.06L3244.05 2632.07L3247.73 2628.09V2547.83V2467.57L3243.44 2463.43L3239.3 2459.15L3194.25 2458.69L3149.35 2458.23L3148.58 2438.01C3147.81 2420.7 3147.97 1387.87 3148.58 819.307L3148.89 634.584L3209.11 633.664C3242.06 633.205 3283.13 633.205 3300.14 633.818L3331.24 634.89L3331.55 675.02C3332.01 711.169 3332.32 715.457 3334.77 717.908C3337.37 720.512 3345.19 720.665 3468.09 721.125C3555.75 721.431 3600.49 721.125 3604.17 720.052C3615.82 716.53 3615.36 719.133 3616.28 651.892L3617.04 592.002L3633.9 591.236C3648.3 590.624 3651.52 590.011 3655.66 586.948C3658.42 584.956 3661.02 581.893 3661.48 580.055C3661.94 578.217 3662.1 536.248 3661.94 486.775L3661.48 396.71L3655.66 391.043L3649.99 385.223L3599.73 384.457L3549.62 383.691L3540.42 377.258C3535.36 373.735 3517.74 360.562 3501.34 348.002C3484.95 335.596 3454.6 312.62 3433.92 296.997C3413.23 281.373 3374.31 251.812 3347.34 231.287C3238.38 148.422 3219.38 134.177 3162.68 92.0554C3109.35 52.5375 3092.34 39.5178 3073.03 23.2818C3063.84 15.3169 3052.19 6.89252 3047.44 4.4418L3038.7 1.50204e-05L3002.23 0.153335C2982.16 0.153335 2964.69 0.61262 2963.46 1.07213ZM2954.27 64.0252C2954.27 64.6379 2946.61 88.9918 2937.26 117.941C2927.91 147.043 2912.43 195.905 2902.78 226.692C2882.7 290.257 2873.97 317.368 2859.87 360.103L2849.91 390.124L2643.49 391.043C2529.94 391.503 2419.91 391.809 2398.76 391.503C2377.77 391.349 2326.74 391.043 2285.67 390.89C2208.44 390.584 2205.22 390.277 2215.79 384.763C2221.92 381.547 2277.7 355.661 2302.99 344.326C2316.01 338.353 2338.08 328.243 2352.02 321.657C2376.85 310.016 2438.45 282.599 2466.65 270.805C2493.01 259.777 2545.72 236.341 2584.19 218.267C2605.33 208.464 2635.98 194.832 2652.38 188.093C2706.93 165.73 2748 148.881 2761.18 143.214C2768.38 140.151 2796.28 128.816 2823.25 117.941C2890.52 90.983 2939.4 70.1518 2948.9 64.6377C2952.58 62.4933 2954.27 62.3403 2954.27 64.0252ZM3099.85 110.282C3177.85 166.802 3207.73 189.931 3289.56 256.56C3309.79 272.949 3393 341.876 3414.15 359.49C3428.09 371.284 3442.04 382.313 3445.1 384.304C3448.17 386.142 3450.77 388.286 3450.77 389.052C3450.77 390.431 3214.47 392.728 3181.83 391.656C3169.27 391.196 3156.7 390.737 3154.1 390.737C3148.58 390.584 3148.58 390.584 3141.22 366.076C3138.62 357.193 3135.86 348.309 3135.09 346.164C3134.33 344.02 3131.11 333.298 3127.74 322.423C3120.23 297.763 3091.27 203.869 3081 170.785C3076.86 157.306 3072.57 142.755 3071.5 138.619C3070.43 134.33 3066.29 119.319 3062.46 104.922C3058.63 90.6767 3055.41 78.7294 3055.41 78.423C3055.41 77.9635 3057.71 79.4952 3060.47 81.4864C3063.07 83.6308 3080.85 96.4972 3099.85 110.282ZM3013.88 196.211C3024.3 238.333 3026.45 247.523 3040.24 308.638C3045.29 331.307 3051.58 358.724 3054.18 369.599C3056.79 380.321 3058.47 389.511 3058.17 389.971C3057.09 390.89 2924.85 390.737 2923.93 389.818C2923.47 389.358 2923.93 388.133 2925 386.908C2925.92 385.682 2940.78 342.795 2957.95 291.636C2975.11 240.324 2990.59 194.526 2992.43 189.931C2994.26 185.336 2997.18 176.146 2998.86 169.559C3000.7 163.126 3002.54 157.765 3003.15 157.765C3003.77 157.765 3008.52 175.074 3013.88 196.211ZM1830.23 401.152L1834.68 402.071L1823.18 414.325C1752.54 488.766 1732.77 508.525 1683.58 552.791C1657.22 576.532 1653.24 582.506 1653.24 598.742C1653.24 604.409 1654 611.455 1654.77 614.518C1656.61 620.645 1663.66 628.763 1669.94 631.52C1673.01 632.899 1817.97 633.511 2257.47 633.818L2840.87 634.124L2840.72 1399.67C2840.56 1820.58 2840.1 2169.96 2839.8 2176.09L2839.03 2186.96L2831.21 2184.66C2815.74 2180.07 2729.46 2150.81 2715.06 2145.3L2700.35 2139.63L2699.43 2108.69C2698.81 2091.69 2698.35 2010.51 2698.2 1928.41C2698.2 1767.28 2697.59 1749.05 2692.53 1739.09C2688.39 1731.13 2685.63 1729.29 2666.94 1723.16C2658.51 1720.41 2636.75 1713.21 2618.67 1707.08C2571.16 1691.15 2420.06 1641.52 2368.88 1624.98C2344.82 1617.32 2290.11 1599.4 2247.05 1585.16C2204.15 1571.07 2165.53 1558.66 2161.54 1557.59C2157.41 1556.67 2150.05 1556.21 2144.99 1556.67C2134.57 1557.59 2076.03 1577.19 1880.04 1645.35C1870.38 1648.72 1833.45 1661.28 1798.05 1673.38C1762.65 1685.48 1730.63 1696.51 1726.79 1697.89C1722.96 1699.27 1702.28 1706.62 1680.82 1713.97C1659.37 1721.33 1622.44 1734.34 1598.84 1742.77C1575.24 1751.19 1548.73 1760.54 1539.84 1763.45C1530.95 1766.51 1517.01 1771.26 1508.73 1774.32L1493.87 1779.68L1491.72 1776.31C1473.79 1746.9 1435.63 1679.82 1435.63 1677.52C1435.63 1676.91 1442.38 1676.91 1450.65 1677.52C1522.06 1682.73 1548.57 1683.03 1557.46 1678.9C1565.28 1675.37 1567.58 1672.62 1568.5 1665.42C1569.26 1658.37 1567.88 1656.38 1547.19 1634.02C1513.79 1597.87 1464.75 1538.75 1443.91 1509.49C1431.96 1492.64 1425.21 1482.69 1398.86 1442.1C1393.95 1434.44 1390.43 1427.7 1391.04 1427.09C1391.81 1426.32 1406.36 1428 1423.53 1430.61C1463.22 1436.74 1496.78 1438.42 1506.74 1434.59C1515.01 1431.37 1518.23 1428 1519.46 1420.96C1520.53 1413.91 1516.39 1406.71 1499.38 1385.58C1492.64 1377.15 1481.61 1362.6 1474.86 1353.26C1456.93 1328.14 1389.66 1226.74 1380.47 1210.81C1376.18 1203.15 1356.1 1163.79 1336.03 1123.2C1311.05 1072.65 1298.48 1048.91 1296.18 1047.68C1291.13 1044.93 1283 1047.07 1279.48 1052.13C1277.79 1054.58 1269.67 1070.81 1261.7 1088.43C1226.15 1165.47 1200.56 1207.44 1121.03 1317.72C1101.11 1345.29 1101.41 1344.53 1110.76 1359.38C1123.63 1380.06 1130.53 1397.06 1133.59 1416.67C1134.51 1422.18 1135.74 1427.09 1136.5 1427.85C1137.42 1428.77 1148.3 1428.62 1163.02 1427.7C1176.81 1426.93 1188.3 1426.47 1188.76 1426.78C1189.53 1427.54 1171.75 1457.11 1159.18 1475.79C1143.71 1498.92 1112.14 1541.96 1093.29 1565.4C1083.64 1577.65 1075.51 1588.37 1075.51 1589.45C1075.51 1590.36 1079.19 1595.27 1083.64 1600.17C1088.08 1605.07 1096.51 1614.57 1102.33 1621.31C1126.24 1649.18 1143.09 1667.87 1170.83 1697.28C1207.3 1736.03 1212.51 1745.53 1212.67 1773.71C1212.67 1792.7 1210.06 1801.59 1200.25 1816.9C1193.05 1828.24 1178.34 1841.26 1164.7 1848.46C1151.37 1855.5 1130.68 1860.4 1087.47 1867.14C1077.2 1868.67 1067.24 1871.13 1064.48 1872.81C1061.72 1874.34 1055.13 1881.54 1049.92 1888.59C1021.88 1926.73 1015.75 1934.38 1007.78 1942.96C1003.03 1948.17 996.747 1953.53 993.989 1954.91C991.231 1956.29 973.454 1963.03 954.452 1969.92C935.45 1976.66 904.802 1987.84 886.259 1994.58C858.369 2004.84 760.754 2038.69 752.019 2041.3C750.333 2041.76 749.26 2040.84 748.954 2038.39C748.647 2036.4 748.494 1978.8 748.801 1910.18C749.107 1792.7 749.26 1785.66 751.866 1786.42C806.267 1804.34 832.931 1808.79 910.012 1812.15C972.228 1814.91 1031.23 1812.31 1087.77 1804.19C1137.58 1797.14 1146.16 1794.39 1152.59 1783.21C1157.5 1774.78 1153.82 1768.2 1132.83 1747.52C1114.13 1729.14 1079.04 1690.54 1042.57 1648.26C994.142 1592.2 961.808 1547.78 918.44 1478.09C907.713 1460.78 895.147 1440.56 890.55 1433.21C885.8 1425.86 882.428 1419.27 883.041 1418.81C883.501 1418.35 897.446 1419.43 914.149 1421.27C958.437 1426.17 979.431 1427.54 1010.69 1427.54C1050.23 1427.54 1062.34 1424.18 1065.4 1412.07C1067.7 1402.58 1063.56 1397.22 1022.65 1356.32C984.794 1318.49 963.187 1294.59 930.546 1254.46C892.542 1207.59 853.772 1150.15 833.544 1110.48C829.866 1103.28 825.882 1096.39 824.809 1095.01C822.51 1092.41 821.897 1089.04 823.89 1089.04C824.503 1089.04 839.52 1091.03 857.143 1093.48C901.737 1099.76 922.118 1101.6 950.774 1101.91C978.052 1102.06 979.431 1101.75 984.641 1091.49C989.085 1082.76 984.641 1074.33 964.107 1052.28C933.765 1019.65 918.44 1001.43 892.542 966.809C862.966 927.291 817.607 861.582 797.838 829.416C790.636 817.775 765.964 772.743 765.964 771.211C765.964 771.058 760.907 760.183 754.624 747.164C748.494 734.297 736.082 706.42 727.194 685.436C704.514 631.827 700.529 623.249 695.013 617.582C689.189 611.608 685.358 611.455 678.922 616.816C674.938 620.492 662.219 643.161 657.162 656.181C653.637 665.218 616.552 745.938 609.197 760.643C590.041 798.782 562.918 844.12 533.342 887.621C512.96 917.642 509.589 922.237 467.447 977.225C462.697 983.505 454.268 993.767 448.752 1000.2C443.235 1006.48 433.581 1017.82 427.298 1025.47C421.015 1032.98 411.667 1043.7 406.457 1049.21C379.18 1077.86 375.042 1086.74 384.083 1096.85C388.068 1101.45 389.447 1101.91 403.392 1103.28C421.321 1105.28 444.767 1103.44 487.982 1096.7C528.131 1090.42 551.424 1087.81 551.424 1089.35C551.424 1090.11 550.045 1092.56 548.513 1094.86C546.827 1097.16 539.778 1108.34 532.575 1119.67C506.065 1162.1 486.603 1188.29 431.895 1255.23C411.361 1280.5 376.881 1317.26 334.28 1359.38C297.961 1395.38 293.977 1399.82 293.977 1404.26C293.977 1411.77 297.808 1417.9 305.163 1421.72C311.6 1425.25 311.906 1425.25 379.026 1425.09C439.251 1425.09 448.752 1424.79 468.673 1421.88C480.933 1420.04 491.2 1418.97 491.506 1419.27C491.966 1419.58 490.893 1421.88 489.055 1424.18C487.369 1426.47 472.045 1450.67 454.881 1478.09C437.872 1505.36 419.942 1533.39 415.345 1540.12C369.525 1605.99 309.148 1676.6 251.682 1731.59C226.55 1755.64 214.291 1769.57 211.226 1777.69C209.847 1781.06 210.306 1783.21 213.065 1788.87C221.646 1806.03 232.833 1808.17 327.69 1810.62C424.233 1813.07 496.87 1809.24 550.658 1798.83C567.362 1795.61 600.309 1787.95 610.116 1785.04C612.568 1784.28 612.721 1792.24 612.721 1936.53C612.721 2080.2 612.568 2088.93 610.116 2090.01C591.267 2097.36 465.149 2141.47 406.61 2161.08C382.244 2169.35 360.178 2177.16 357.572 2178.38C355.121 2179.76 350.37 2183.59 347.152 2186.96C341.788 2192.48 341.022 2194.16 339.95 2204.27C337.498 2225.71 335.046 2441.07 336.731 2484.27L338.264 2524.7L343.168 2529.76C348.071 2534.81 370.905 2544.31 394.044 2551.05C398.795 2552.43 402.779 2554.11 402.779 2554.72C402.779 2555.34 388.068 2562.69 370.292 2570.96C327.077 2590.87 277.427 2615.53 274.055 2618.44C268.385 2623.65 267.619 2630.7 266.393 2693.5C265.78 2727.19 265.014 2800.87 264.707 2857.39C264.094 2956.95 264.248 2960.32 267.159 2968.44C268.845 2973.03 272.37 2978.85 274.975 2981.46C280.951 2987.58 302.252 2997.84 329.223 3007.95C340.562 3012.24 365.848 3022.05 385.156 3029.7C404.618 3037.52 442.162 3052.22 468.673 3062.64C553.263 3095.72 605.979 3116.7 659.46 3138.45C688.117 3150.1 724.742 3164.95 740.679 3171.39C768.109 3182.41 820.059 3204.16 867.564 3224.38C879.21 3229.44 889.018 3233.42 889.477 3233.42C889.937 3233.42 893.309 3234.8 896.986 3236.48C903.576 3239.39 906.487 3242 904.955 3243.53C904.648 3243.99 724.435 3244.14 504.839 3244.14C141.654 3244.14 105.029 3243.84 101.504 3241.69L97.8262 3239.24L97.8262 1823.95C97.8262 825.587 98.286 407.892 99.5119 405.748C100.431 404.063 102.577 402.071 104.416 401.306C108.247 399.774 1823.03 399.621 1830.23 401.152ZM2205.37 446.644C2203.99 449.401 2178.09 477.278 2155.11 500.56C2129.06 527.211 2094.73 559.071 2092.28 559.071C2091.67 559.071 2083.08 551.259 2073.28 541.762C2054.89 523.995 2036.8 507.606 2019.49 493.361C2013.97 488.919 2007.84 483.252 2005.7 480.954C1995.43 469.773 1978.11 448.635 1978.11 447.257C1978.11 446.338 1988.07 445.572 2003.86 445.419C2038.34 444.806 2205.83 445.878 2205.37 446.644ZM1907.16 461.501C1935.2 488.153 1941.33 493.667 1966.62 514.805C2003.7 545.745 2019.49 559.53 2019.49 560.909C2019.49 561.521 1962.48 562.134 1892.91 562.134C1819.66 562.134 1766.64 561.521 1766.94 560.756C1767.56 559.071 1808.63 521.391 1827.63 505.155C1841.57 493.055 1884.63 449.095 1884.63 446.95C1884.63 446.184 1886.01 445.725 1887.55 445.725C1889.23 445.725 1897.81 452.618 1907.16 461.501ZM2610.39 447.563C2611.77 448.941 2500.82 561.215 2497.61 561.675C2496.38 561.981 2488.1 555.854 2479.22 548.196C2470.33 540.537 2456.54 529.049 2448.57 522.616C2440.6 516.183 2431.25 508.371 2427.88 505.308C2390.95 471.917 2367.5 449.86 2366.74 448.022C2365.97 445.878 2379.46 445.725 2487.49 446.031C2554.46 446.337 2609.78 446.95 2610.39 447.563ZM2829.99 449.707L2841.33 450.626L2840.41 467.628C2839.8 477.125 2839.34 494.28 2839.34 505.767C2839.34 519.093 2838.72 526.905 2837.8 526.905C2836.88 526.905 2829.22 520.472 2820.49 512.66C2811.91 504.848 2800.11 494.433 2794.13 489.531C2785.7 482.639 2750.46 449.095 2750.46 448.176C2750.46 447.563 2820.18 448.941 2829.99 449.707ZM2326.74 483.252C2341.91 497.496 2364.59 519.4 2377.31 531.653C2389.88 543.907 2403.97 556.926 2408.42 560.449C2412.71 564.125 2416.39 567.648 2416.39 568.414C2416.39 570.099 2170.13 570.252 2169.05 568.567C2168.59 567.801 2172.58 564.279 2177.79 560.602C2190.35 551.872 2211.19 532.879 2248.59 496.118C2288.89 456.447 2293.33 452.617 2296.7 455.221C2298.08 456.294 2311.57 468.854 2326.74 483.252ZM3082.38 458.285C3081.92 460.276 3081.46 485.09 3081.46 513.579V565.198L3035.95 564.585C3010.81 564.278 2972.5 563.819 2950.9 563.819L2911.36 563.666V509.29V454.915H2997.33H3083.3L3082.38 458.285ZM3311.02 455.987L3334.31 456.906V510.209V563.513L3245.89 563.972C3197.16 564.278 3155.48 564.125 3153.18 563.819L3148.89 563.36V534.564C3148.89 518.787 3149.35 494.433 3149.96 480.494L3150.88 454.915H3219.38C3257.08 454.915 3298.3 455.375 3311.02 455.987ZM2688.85 461.961C2689.62 463.186 2701.42 475.746 2715.36 489.685C2737.28 511.894 2759.65 532.419 2789.23 557.386C2793.67 561.062 2797.35 565.044 2797.65 565.963C2797.96 567.495 2782.79 568.108 2730.23 568.874C2673.68 569.64 2592.31 569.486 2581.28 568.567C2579.13 568.261 2580.66 565.81 2588.17 557.233C2599.21 544.826 2684.71 459.663 2686.4 459.51C2687.01 459.51 2688.09 460.582 2688.85 461.961ZM3058.32 633.358L3082.99 634.43L3082.84 694.473C3082.69 727.405 3082.23 756.354 3081.61 758.651L3080.69 762.94L3075.18 758.651C3057.25 744.713 3031.35 722.503 3007.14 700.293C2973.73 669.659 2938.79 635.503 2939.56 634.277C2940.48 632.899 3031.04 632.133 3058.32 633.358ZM2919.79 697.996C2921.78 700.447 2925.76 705.042 2928.52 708.412C2945.84 729.09 2987.67 775.194 3010.35 798.322C3024.91 813.333 3038.09 827.272 3039.47 829.416C3041.77 832.939 3041.77 833.551 3039.32 837.381C3037.79 839.678 3024.45 853.31 3009.59 867.708C2994.72 881.953 2967.45 909.064 2948.9 927.904C2930.36 946.591 2914.73 961.908 2914.12 961.908C2912.28 961.908 2912.59 693.86 2914.43 693.86C2915.34 693.86 2917.64 695.698 2919.79 697.996ZM3082.99 1030.53C3082.99 1106.96 3082.38 1170.37 3081.61 1171.6C3080.69 1172.98 3079.93 1173.13 3079.31 1171.9C3078.7 1170.99 3070.27 1163.48 3060.47 1155.36C3033.8 1133.15 3012.35 1113.55 2992.27 1093.79C2974.8 1076.33 2949.21 1046.92 2945.38 1039.72C2943.23 1035.74 2939.4 1040.02 2989.51 988.713C3027.36 949.808 3042.69 933.418 3062 910.902C3071.96 899.415 3080.85 890.224 3081.61 890.684C3082.38 891.297 3082.99 946.744 3082.99 1030.53ZM2921.93 1110.02C2953.04 1147.4 2965.45 1161.03 3012.96 1210.5C3029.51 1227.96 3043.15 1242.82 3043.15 1243.59C3043.15 1244.35 3029.82 1257.37 3013.57 1272.54C2997.33 1287.7 2979.09 1305.62 2973.12 1312.21C2967.14 1318.95 2951.05 1334.88 2937.56 1347.74L2912.89 1371.18V1237C2912.89 1153.83 2913.51 1102.82 2914.27 1102.82C2915.19 1102.82 2918.56 1106.04 2921.93 1110.02ZM3082.99 1434.44C3082.99 1511.48 3082.69 1574.59 3082.23 1574.59C3079.01 1574.59 3026.75 1529.25 2999.47 1502.75C2972.04 1476.1 2945.07 1445.47 2945.07 1441.02C2945.07 1440.11 2962.08 1422.03 2983.08 1400.89C3031.96 1351.27 3040.24 1342.38 3062 1316.04C3071.96 1304.09 3080.85 1294.29 3081.61 1294.29C3082.38 1294.29 3082.99 1349.12 3082.99 1434.44ZM2923.31 1513.63C2928.22 1518.99 2938.79 1530.78 2946.76 1540.12C2961.01 1556.82 3016.18 1612.57 3035.79 1630.04L3046.06 1639.23L2980.78 1703.86C2944.92 1739.25 2915.04 1768.5 2914.27 1768.81C2913.51 1769.11 2912.89 1713.05 2912.89 1636.78C2912.89 1563.87 2913.2 1504.13 2913.51 1504.13C2913.81 1504.13 2918.26 1508.42 2923.31 1513.63ZM2201.54 1672.62C2222.23 1679.36 2247.36 1687.32 2257.47 1690.38C2267.74 1693.3 2276.32 1695.9 2276.63 1696.36C2278.01 1697.74 2274.94 1700.03 2269.58 1701.87C2266.52 1702.79 2248.13 1710.14 2228.66 1718.11C2157.87 1747.21 2114.35 1765.28 2071.59 1782.9C2025.46 1802.05 1941.03 1835.74 1870.84 1863.31C1825.48 1881.08 1798.21 1892.11 1738.29 1916.92C1717.29 1925.65 1691.7 1935.92 1681.59 1939.9C1671.47 1943.88 1644.96 1954.76 1622.59 1963.95C1582.9 1980.49 1473.64 2024.3 1401.92 2052.48C1382.15 2060.29 1344.91 2075.15 1319.17 2085.41C1222.93 2124.16 1207.15 2130.44 1169.76 2145.15C1112.6 2167.51 1047.93 2193.09 1013.45 2207.18C996.594 2214.07 971.156 2224.18 956.751 2229.7C915.222 2245.63 858.676 2268.3 798.451 2293.42C788.491 2297.55 786.498 2297.86 780.828 2296.48C770.561 2293.87 568.434 2225.25 565.063 2223.26C564.143 2222.65 563.99 2221.58 564.756 2220.81C565.523 2220.05 581 2214.38 599.083 2208.1C650.266 2190.49 752.938 2154.95 785.119 2143.62C801.21 2138.1 822.817 2130.44 833.391 2126.77C843.964 2123.24 873.234 2112.83 898.519 2103.79C923.804 2094.91 966.252 2080.05 992.763 2070.86C1019.27 2061.67 1050.08 2051.1 1060.96 2047.12C1071.99 2043.14 1097.43 2034.25 1117.66 2027.21C1137.88 2020.16 1168.99 2009.28 1186.61 2003C1204.39 1996.57 1238.1 1984.78 1261.7 1976.66C1310.74 1959.81 1331.89 1952.31 1353.65 1944.49C1362.08 1941.43 1379.39 1935.15 1391.96 1930.71C1404.68 1926.27 1440.54 1913.55 1471.65 1902.37C1502.91 1891.34 1547.04 1875.72 1569.72 1867.6C1592.55 1859.64 1622.9 1848.92 1637.15 1843.86C1651.55 1838.81 1677.76 1829.62 1695.38 1823.49C1713.16 1817.36 1751.31 1803.88 1780.43 1793.62C1852.76 1768.04 1882.03 1757.78 1938.27 1738.48C2016.42 1711.68 2140.24 1667.41 2152.04 1661.9C2158.17 1659.14 2164.61 1660.52 2201.54 1672.62ZM3082.69 1830.23C3082.84 1903.75 3082.38 1964.87 3081.77 1966.24C3080.69 1968.08 3075.79 1964.71 3057.09 1949.09C3026.91 1923.82 3003.46 1902.37 2983.23 1881.39C2966.37 1863.93 2943.54 1837.27 2943.54 1835.13C2943.54 1834.52 2956.11 1821.96 2971.58 1807.41C3014.19 1766.66 3054.34 1725.46 3072.88 1702.79C3076.25 1698.81 3079.62 1695.75 3080.54 1696.05C3081.77 1696.51 3082.38 1736.8 3082.69 1830.23ZM2375.78 1728.52C2443.82 1749.66 2505.88 1770.03 2506.35 1771.56C2506.65 1772.33 2494.85 1778.15 2480.44 1784.28C2446.27 1798.98 2427.27 1807.41 2255.48 1883.53C2176.72 1918.46 2099.17 1952.77 2083.08 1959.81C2053.2 1972.83 1886.32 2047.42 1856.28 2061.36C1841.88 2067.95 1705.65 2129.68 1594.24 2179.92C1576.62 2188.03 1541.68 2203.81 1516.85 2215.3C1492.03 2226.63 1446.21 2247.31 1414.95 2261.25C1365.14 2283.46 1337.1 2296.02 1313.04 2307.05C1295.57 2315.01 1200.71 2357.44 1190.45 2361.88C1168.38 2371.38 1125.32 2390.68 1113.82 2396.19C1107.54 2399.26 1100.34 2401.71 1097.73 2401.71C1095.13 2401.71 1043.64 2385.16 983.415 2364.79C923.191 2344.57 868.636 2326.19 862.047 2324.05C852.393 2320.83 850.554 2319.76 851.933 2318.08C852.852 2316.85 854.691 2315.93 855.917 2315.93C859.748 2315.93 938.362 2284.38 990.005 2262.02C1001.5 2257.11 1040.57 2241.95 1076.59 2228.47C1140.8 2204.42 1214.05 2175.32 1303.08 2138.56C1349.05 2119.72 1372.34 2110.38 1415.71 2093.83C1481.15 2068.87 1773.84 1952 1910.69 1896.25C1929.69 1888.59 1966.93 1873.58 1993.44 1863.16C2090.75 1824.41 2154.65 1798.83 2201.85 1779.53C2228.36 1768.5 2261.92 1754.87 2276.17 1749.2C2290.57 1743.38 2311.88 1734.5 2323.67 1729.44C2339.77 1722.55 2346.35 1720.41 2349.73 1721.02C2352.33 1721.48 2363.98 1724.85 2375.78 1728.52ZM2597.52 1852.13C2597.83 1854.12 2597.68 1881.08 2597.21 1912.02L2596.45 1968.54L2578.82 1975.74C2558.29 1984.32 2485.35 2018.32 2341.3 2086.48C2332.41 2090.77 2317.24 2097.82 2307.58 2102.26C2297.93 2106.7 2275.1 2117.27 2257.01 2126C2121.39 2190.33 2071.9 2213.31 1884.63 2298.62C1850.46 2314.09 1818.13 2328.95 1812.61 2331.55C1807.09 2334.16 1795.45 2339.52 1786.56 2343.5C1777.67 2347.48 1740.89 2364.49 1704.57 2381.33C1668.41 2398.18 1608.64 2425.91 1572.02 2442.76C1504.13 2474 1431.19 2508.16 1303.85 2568.2C1233.51 2601.44 1188.3 2622.27 1186.77 2622.27C1186.31 2622.27 1185.85 2590.26 1185.85 2551.2V2480.28L1213.13 2469.1C1227.99 2462.97 1261.7 2448.27 1287.75 2436.48C1313.96 2424.84 1352.88 2407.37 1374.34 2397.88C1395.79 2388.38 1424.75 2375.21 1438.7 2368.78C1452.64 2362.34 1482.22 2348.86 1504.59 2338.91C1526.97 2328.95 1559.3 2314.55 1576.62 2306.74C1593.93 2298.93 1620.14 2287.29 1634.85 2280.7C1649.56 2274.12 1666.57 2266.61 1672.39 2263.85C1678.37 2261.1 1691.4 2255.28 1701.51 2250.83C1711.62 2246.39 1739.21 2233.99 1762.81 2223.26C1786.41 2212.54 1827.78 2193.85 1854.75 2181.91C1881.72 2169.81 1920.03 2152.5 1939.8 2143.62C2051.21 2092.92 2062.55 2087.86 2142.08 2052.02C2177.02 2036.4 2190.2 2030.58 2278.47 1991.21C2301.61 1980.95 2330.57 1968.08 2342.83 1962.57C2355.09 1957.05 2384.05 1944.03 2407.19 1933.77C2430.33 1923.51 2469.41 1905.9 2493.77 1894.71C2547.56 1870.05 2594.61 1848.92 2595.99 1848.92C2596.6 1848.76 2597.21 1850.29 2597.52 1852.13ZM2929.14 1914.47C2943.54 1933.47 3007.29 1997.8 3038.24 2024.6C3042.54 2028.43 3046.21 2032.41 3046.21 2033.49C3046.21 2036.55 2987.83 2095.37 2958.56 2121.71C2928.37 2148.98 2916.42 2158.63 2914.27 2157.25C2912.74 2156.33 2912.28 1905.74 2913.81 1901.76C2914.58 1899.62 2915.04 1899.62 2918.26 1902.07C2920.1 1903.44 2925 1909.11 2929.14 1914.47ZM2597.52 2077.75L2597.21 2136.72L2583.73 2143.46C2576.37 2147.14 2555.99 2156.79 2538.21 2165.06C2479.06 2192.48 2463.28 2199.83 2431.71 2214.84C2414.39 2223.11 2380.37 2239.19 2355.86 2250.83C2331.49 2262.47 2289.35 2282.39 2262.38 2295.25C2211.35 2319.61 2206.6 2321.75 2161.24 2342.74C2146.07 2349.78 2116.18 2363.72 2094.88 2373.98C2073.58 2384.25 2055.81 2392.52 2055.65 2392.52C2055.35 2392.52 2043.55 2398.03 2029.3 2404.92C2015.04 2411.82 1998.65 2419.63 1992.67 2422.38C1955.43 2439.85 1885.86 2472.93 1831.77 2498.97C1725.57 2550.13 1721.89 2551.81 1721.58 2551.81C1721.28 2551.81 1707.49 2558.4 1690.94 2566.36C1674.23 2574.33 1660.44 2580.92 1660.13 2580.92C1659.83 2580.92 1636.54 2592.25 1608.34 2606.04C1580.14 2619.97 1551.18 2634.07 1544.13 2637.28C1530.8 2643.56 1443.76 2685.99 1359.93 2727.04C1333.11 2740.21 1310.89 2750.93 1310.59 2750.93C1310.28 2750.93 1298.79 2756.45 1285.15 2763.34C1257.87 2776.82 1225.84 2791.98 1202.25 2802.4C1191.98 2806.99 1187.07 2808.37 1186.46 2807.15C1186.16 2806.08 1186 2775.75 1186.16 2739.6C1186.61 2683.08 1186.92 2673.74 1188.91 2672.66C1190.14 2671.9 1206.69 2664.24 1225.69 2655.36C1272.74 2633.61 1308.44 2616.91 1332.2 2605.42C1359.47 2592.25 1390.89 2577.24 1406.52 2569.89C1413.72 2566.52 1426.75 2560.24 1435.63 2556.1C1444.52 2551.81 1469.96 2539.87 1492.33 2529.6C1514.71 2519.19 1545.66 2504.79 1561.29 2497.44C1576.92 2490.09 1593.47 2482.43 1598.07 2480.28C1602.67 2478.14 1620.14 2469.87 1636.84 2462.06C1653.54 2454.09 1667.49 2447.66 1667.64 2447.66C1667.95 2447.66 1676.99 2443.52 1687.72 2438.47C1698.45 2433.26 1715.3 2425.45 1725.11 2421.01C1734.92 2416.41 1747.48 2410.59 1753.15 2407.99C1781.2 2394.81 1813.22 2380.11 1840.19 2368.01C1856.59 2360.66 1875.9 2351.77 1883.1 2348.4C1890.3 2345.03 1918.19 2332.32 1945.17 2320.07C1972.14 2307.81 2002.48 2293.87 2012.59 2289.13C2035.12 2278.4 2101.47 2247.77 2136.72 2231.69C2151.12 2225.1 2171.81 2215.6 2182.69 2210.24C2193.73 2205.04 2216.1 2194.62 2232.5 2186.96C2263.14 2172.87 2295.32 2157.71 2390.34 2112.98C2519.06 2052.17 2591.85 2019.09 2596.45 2018.78C2597.52 2018.78 2597.83 2039.15 2597.52 2077.75ZM3082.99 2269.98V2458.38H3055.56H3028.28L3027.21 2402.78C3025.99 2340.59 3023.69 2276.87 3022.31 2267.99C3020.62 2257.57 3014.49 2252.67 2992.89 2244.25C2982.16 2240.11 2966.37 2234.29 2957.79 2231.53C2948.14 2228.47 2942.01 2225.56 2942.01 2224.34C2942.01 2223.26 2950.44 2214.38 2960.86 2204.58C2994.26 2172.72 3063.68 2102.57 3072.11 2091.84C3076.71 2086.18 3081 2081.58 3081.77 2081.58C3082.38 2081.58 3082.99 2166.28 3082.99 2269.98ZM2728.08 2259.87C2772.83 2274.58 2811.29 2287.14 2813.74 2287.75C2816.04 2288.21 2818.19 2289.28 2818.68 2289.89C2819.11 2290.66 2808.23 2296.63 2794.59 2303.37C2764.09 2318.38 2680.58 2361.12 2640.12 2382.56C2602.12 2402.47 2575.76 2416.1 2492.24 2458.84C2455.16 2477.83 2414.85 2498.66 2402.59 2504.94C2390.34 2511.38 2366.12 2523.78 2348.81 2532.67C2307.43 2553.5 2278.32 2568.51 2241.69 2587.81C2074.5 2675.88 1801.12 2815.27 1595.77 2916.97C1512.72 2958.02 1461.38 2984.52 1435.48 2999.22L1422.46 3006.73L1379.55 2992.33C1338.48 2978.55 1229.68 2939.18 1202.86 2928.46C1195.66 2925.55 1189.68 2922.48 1189.35 2921.57C1189.07 2920.49 1193.97 2917.58 1200.41 2914.98C1243.47 2896.91 1323.31 2859.99 1417.24 2814.5C1446.36 2800.41 1487.43 2780.8 1508.42 2770.85C1595.77 2729.64 1608.19 2723.82 1644.04 2706.51C1704.73 2677.26 1730.01 2665.16 1730.78 2665.16C1731.24 2665.16 1748.25 2657.19 1768.63 2647.39C1789.01 2637.59 1823.03 2621.51 1844.03 2611.55C1865.17 2601.59 1893.37 2588.27 1906.86 2581.68C1935.2 2568.05 1993.9 2540.02 2009.53 2532.67C2015.5 2529.91 2039.87 2518.12 2063.93 2506.63C2087.99 2494.99 2118.94 2480.28 2132.89 2473.7C2146.83 2467.11 2172.27 2455.16 2189.59 2446.89C2206.9 2438.77 2236.17 2424.99 2254.72 2416.26C2273.26 2407.68 2301.15 2394.51 2316.78 2387.16C2332.41 2379.8 2355.55 2368.93 2368.12 2363.11C2380.83 2357.13 2403.51 2346.41 2418.69 2339.21C2444.74 2326.96 2453.32 2322.98 2500.67 2300.31C2511.24 2295.25 2541.28 2281.31 2567.33 2269.21C2593.54 2257.11 2621.27 2244.09 2629.24 2240.27C2637.21 2236.44 2644.41 2233.22 2645.18 2233.22C2645.94 2233.22 2683.34 2245.17 2728.08 2259.87ZM446.76 2283.92C453.349 2286.52 469.133 2292.19 481.699 2296.79C525.833 2312.41 578.242 2333.09 592.953 2340.59C602.761 2345.49 614.407 2353.3 623.602 2361.12C644.289 2378.58 692.714 2423.92 714.628 2445.97C742.365 2474.16 754.93 2484.27 786.652 2503.87C826.342 2528.38 857.603 2544.15 929.934 2576.32C1003.8 2609.1 1028.62 2619.21 1077.05 2635.75C1083.33 2637.89 1089 2640.35 1089.61 2641.26C1090.23 2642.18 1090.84 2657.35 1090.84 2674.96V2706.82L1087.47 2706.06C1085.47 2705.6 1063.56 2697.63 1038.74 2688.13C1013.91 2678.79 980.044 2666.23 963.647 2660.41C947.25 2654.44 930.393 2648.31 926.102 2646.78C913.537 2642.03 872.008 2626.87 857.91 2621.97C811.783 2605.58 748.801 2559.17 683.979 2493.76C641.224 2450.41 614.56 2428.66 580.694 2409.06C549.279 2390.83 500.241 2374.29 440.323 2361.42L431.129 2359.58L430.669 2342.74C430.056 2320.83 431.895 2279.17 433.427 2279.17C434.194 2279.17 440.17 2281.31 446.76 2283.92ZM2928.68 2416.1C2929.29 2452.41 2929.29 2482.43 2928.68 2483.04C2927.91 2483.5 2921.63 2486.56 2914.43 2489.78C2899.87 2496.21 2843.93 2523.94 2815.58 2538.79C2767.01 2564.07 2718.27 2589.49 2662.34 2618.44C2628.63 2635.9 2597.67 2652.14 2593.38 2654.44C2589.24 2656.73 2574.99 2664.09 2561.97 2670.98C2493.77 2706.06 2417.77 2745.73 2411.02 2749.4C2406.89 2751.7 2384.82 2763.03 2361.99 2774.68C2319.08 2796.58 2235.25 2839.62 2212.57 2851.57C2190.97 2863.05 2031.9 2945.31 1994.2 2964.61C1974.89 2974.56 1928.62 2998.46 1891.53 3017.91C1854.45 3037.21 1814.14 3058.19 1801.88 3064.63C1789.62 3070.91 1772.46 3079.94 1763.57 3084.85C1754.69 3089.59 1735.84 3099.7 1721.43 3107.05C1707.18 3114.41 1685.42 3125.89 1673.16 3132.48C1632.55 3154.23 1609.87 3165.87 1568.19 3187.01C1545.51 3198.34 1515.93 3213.51 1502.75 3220.55C1489.58 3227.6 1477.93 3233.42 1477.01 3233.42C1475.32 3233.42 1475.17 3179.96 1476.86 3127.27L1477.78 3096.95L1500.76 3085C1513.48 3078.57 1534.17 3067.38 1546.73 3060.34C1559.45 3053.29 1618.3 3022.96 1677.76 2992.94C1737.22 2962.92 1793.46 2934.13 1802.65 2929.07C1812 2924.02 1846.48 2906.25 1879.27 2889.55C1912.22 2872.86 1950.84 2852.95 1965.09 2845.13C1979.49 2837.48 2000.18 2826.45 2011.06 2820.63C2022.09 2814.96 2037.57 2806.54 2045.54 2802.09C2067.91 2789.69 2105.76 2770.08 2161.24 2742.2C2189.13 2728.27 2234.18 2705.29 2261.61 2691.2C2289.04 2677.11 2327.97 2657.04 2348.19 2646.78C2416.69 2611.7 2481.36 2578.31 2505.27 2565.6C2518.29 2558.71 2547.72 2543.39 2570.4 2531.59C2650.39 2490.09 2685.79 2471.55 2725.94 2449.96C2858.95 2378.58 2918.26 2348.86 2925.15 2350.09C2927.14 2350.39 2927.6 2359.58 2928.68 2416.1ZM700.529 2368.32C702.368 2369.23 719.378 2375.51 738.38 2382.1C757.382 2388.84 785.579 2398.8 801.21 2404.31C816.84 2409.67 847.183 2420.24 868.636 2427.75C890.09 2435.1 917.674 2444.75 929.934 2449.19C942.193 2453.48 963.494 2461.14 977.439 2466.04C991.384 2470.94 1022.49 2482.12 1046.86 2490.7L1090.84 2506.47V2549.06C1090.84 2584.13 1090.53 2591.64 1088.69 2591.64C1086.24 2591.64 1034.44 2572.49 1002.42 2559.62C967.938 2545.84 854.998 2493.3 821.898 2475.53C792.781 2459.91 782.974 2453.48 764.278 2437.24C748.188 2423.3 693.94 2369.54 693.94 2367.55C693.94 2366.02 696.698 2366.17 700.529 2368.32ZM450.744 2406.45C459.326 2409.06 472.198 2412.89 479.4 2415.03C500.854 2421.47 544.988 2438.31 559.699 2445.67C595.865 2463.89 615.326 2479.06 661.606 2525.31C682.906 2546.76 702.062 2565.29 704.054 2566.67C706.046 2567.9 707.732 2569.58 707.732 2570.35C707.732 2572.95 702.062 2571.73 687.657 2566.36C628.659 2544.61 507.597 2501.88 456.414 2484.88C445.074 2481.05 434.653 2477.37 433.274 2476.61C431.129 2475.53 430.822 2470.63 430.516 2438.47C430.209 2405.23 430.363 2401.71 432.661 2401.71C434.04 2401.71 442.316 2403.85 450.744 2406.45ZM2931.74 2583.52C2932.2 2611.09 2932.35 2634.22 2931.89 2634.68C2931.59 2635.29 2909.98 2646.63 2884.08 2659.95C2858.18 2673.12 2826.77 2689.51 2814.05 2696.25C2785.55 2711.42 2744.33 2733.17 2709.08 2751.7C2663.57 2775.59 2597.52 2811.13 2536.68 2844.21C2504.65 2861.68 2468.18 2881.44 2455.46 2888.02C2442.9 2894.61 2422.52 2905.33 2410.26 2911.76C2398 2918.2 2379.76 2927.85 2369.65 2933.21C2359.53 2938.57 2328.58 2955.42 2300.69 2970.73C2232.34 3008.57 2145.91 3054.98 2033.28 3114.71C2017.65 3122.98 2001.87 3131.41 1998.03 3133.55C1989.3 3138.3 1937.2 3166.33 1919.11 3175.98C1878.96 3197.43 1817.36 3231.28 1809.09 3236.64C1803.88 3240.01 1798.36 3243.07 1796.52 3243.38C1790.85 3244.6 1553.63 3244.91 1554.09 3243.68C1554.24 3242.92 1565.43 3236.79 1578.92 3229.74C1592.4 3222.85 1610.02 3213.66 1617.99 3209.37C1625.96 3205.08 1643.28 3196.2 1656.3 3189.31C1669.33 3182.57 1705.95 3163.57 1737.52 3147.34C1769.09 3130.95 1815.37 3106.75 1840.19 3093.73C1865.02 3080.71 1912.98 3055.74 1946.7 3038.43C1980.41 3021.13 2023.47 2998.92 2042.47 2989.11C2061.48 2979.31 2088.75 2965.22 2103.01 2957.71C2117.41 2950.36 2148.37 2934.28 2171.96 2922.18C2195.56 2909.92 2233.57 2890.47 2256.25 2878.83C2279.08 2867.19 2314.94 2848.5 2335.93 2837.48C2357.08 2826.29 2395.7 2806.38 2421.75 2793.06C2447.95 2779.73 2484.12 2760.89 2502.2 2751.24C2520.29 2741.59 2557.83 2721.99 2585.57 2707.74C2613.3 2693.5 2637.36 2680.94 2639.2 2679.71C2643.19 2677.26 2850.68 2569.89 2879.18 2555.64C2905.54 2542.32 2925.31 2533.59 2928.37 2533.43C2930.52 2533.43 2930.98 2539.1 2931.74 2583.52ZM560.925 2625.18C580.54 2631.77 609.35 2641.88 624.981 2647.54C640.611 2653.06 669.881 2663.63 690.109 2670.83C710.337 2677.87 739.606 2688.44 755.237 2694.26C770.868 2700.08 799.831 2710.65 819.599 2717.7C839.367 2724.9 894.534 2745.73 942.193 2763.95C989.851 2782.33 1041.49 2801.79 1057.12 2807.15C1072.76 2812.66 1085.93 2817.56 1086.55 2818.18C1087.16 2818.64 1088.08 2833.8 1088.54 2851.87L1089.61 2884.65L1085.93 2883.73C1082.26 2882.81 1070.15 2878.52 981.27 2846.21C962.727 2839.47 920.279 2823.69 887.026 2810.98C790.023 2774.37 753.705 2760.74 742.211 2756.6C732.097 2752.93 623.755 2711.72 571.346 2691.5C558.32 2686.45 529.664 2675.12 507.75 2666.23C485.836 2657.5 465.915 2649.84 463.616 2649.23C461.164 2648.62 459.479 2647.39 459.938 2646.32C460.551 2644.48 520.163 2613.23 523.381 2613.08C524.454 2613.08 541.31 2618.44 560.925 2625.18ZM396.036 2734.7C413.659 2740.83 430.822 2747.11 434.194 2748.33C437.565 2749.71 459.938 2757.98 483.998 2766.86C508.057 2775.75 544.528 2789.23 565.216 2796.89C617.932 2816.49 721.064 2854.32 757.536 2867.34C774.392 2873.47 795.846 2882.35 805.041 2887.1C836.456 2903.64 886.106 2937.04 925.336 2968.13C957.211 2993.4 966.865 3002.13 1000.43 3035.83C1029.69 3065.39 1043.33 3076.57 1091.91 3112.11C1108.31 3123.9 1139.88 3143.36 1171.6 3160.97C1208.68 3181.5 1242.4 3195.43 1306.14 3216.57C1372.8 3238.47 1376.64 3239.85 1376.64 3242.61C1376.64 3244.3 1360.85 3244.6 1287.75 3244.3L1198.87 3243.99L1189.68 3240.16C1177.73 3235.26 1135.43 3218.87 1109.23 3208.91C1097.89 3204.62 1079.65 3196.51 1068.62 3190.99C1047.01 3180.27 990.771 3143.66 969.777 3126.66C962.574 3120.84 949.549 3110.42 940.661 3103.38C931.772 3096.33 905.261 3071.06 881.662 3047.32C830.326 2995.7 811.324 2980.08 774.239 2958.79C760.447 2950.97 721.217 2931.37 703.288 2923.25C696.852 2920.49 683.673 2914.52 674.018 2910.23C614.101 2883.27 550.198 2861.68 473.271 2842.38C428.37 2831.04 421.628 2829.51 388.527 2823.69C372.743 2820.93 359.411 2818.33 358.952 2817.87C358.492 2817.41 358.492 2795.97 359.105 2770.23C360.024 2734.85 360.791 2723.36 362.17 2723.36C363.242 2723.36 378.413 2728.42 396.036 2734.7ZM378.72 2866.58C428.37 2874.08 464.382 2882.81 521.542 2901.81C577.782 2920.34 613.181 2933.97 661.759 2955.42C723.516 2982.83 757.842 3000.75 792.015 3023.27C813.009 3037.21 816.381 3040.12 855.304 3079.18C877.831 3102 896.22 3120.69 896.22 3120.99C896.22 3122.83 889.018 3120.99 879.823 3116.86C874.153 3114.25 853.159 3105.52 833.391 3097.56C813.622 3089.59 788.491 3079.33 777.457 3074.89C766.577 3070.45 740.985 3060.18 720.757 3052.22C700.529 3044.25 672.946 3033.07 659.46 3027.71C613.028 3008.72 538.399 2979.31 462.544 2950.06C430.056 2937.5 396.649 2924.63 388.221 2921.26C379.793 2918.04 369.679 2914.21 365.694 2912.68L358.339 2909.92V2887.1C358.339 2867.8 358.645 2864.28 360.637 2864.28C361.863 2864.28 369.985 2865.35 378.72 2866.58ZM968.397 2940.71C976.366 2943.93 1000.43 2953.27 1021.88 2961.24C1043.33 2969.2 1074.44 2981.15 1090.84 2987.58C1107.24 2994.02 1129.76 3002.75 1140.64 3007.03C1151.68 3011.17 1175.12 3020.36 1192.74 3027.41C1278.1 3061.1 1331.28 3080.86 1359.47 3089.59L1380.47 3096.18V3147.19C1380.47 3188.08 1380.01 3198.19 1378.47 3198.19C1377.4 3198.19 1367.9 3194.67 1357.33 3190.38C1346.91 3186.09 1323.92 3177.05 1306.14 3170.31C1261.24 3153.47 1254.81 3150.71 1221.25 3134.47C1191.52 3120.07 1168.07 3107.51 1146.01 3094.34C1127.92 3083.47 1089.61 3057.58 1078.58 3049C1069.08 3041.5 1018.51 2997.08 982.649 2964.61C973.454 2956.18 962.574 2946.84 958.59 2943.93C952.154 2939.03 949.395 2934.74 952.767 2934.74C953.533 2934.74 960.582 2937.5 968.397 2940.71Z" fill="#256437"/>
</svg>
