<?xml version="1.0" encoding="UTF-8"?>
<svg width="2389.675px" height="2184.5px" viewBox="0 0 2389.675 2184.5" version="1.1" xmlns="http://www.w3.org/2000/svg" xmlns:xlink="http://www.w3.org/1999/xlink">
    <title>logo-expertwood</title>
    <g id="Page-1" stroke="none" stroke-width="1" fill="none" fill-rule="evenodd">
        <g id="logo-expertwood" transform="translate(-0.000000, 0.000000)" fill="#FFFFFF" fill-rule="nonzero">
            <g id="Group" transform="translate(1194.837500, 1092.250000) scale(-1, 1) rotate(-180.000000) translate(-1194.837500, -1092.250000) translate(0.000000, 0.000000)">
                <path d="M1933.8375,2183.8 C1933.0375,2183.5 1921.5375,2178.4 1908.3375,2172.5 C1895.1375,2166.6 1879.6375,2159.7 1873.8375,2157.2 C1868.0375,2154.8 1854.0375,2148.6 1842.6375,2143.7 C1831.3375,2138.7 1804.7375,2127.2 1783.6375,2118.1 C1762.6375,2109.1 1740.6375,2099.6 1734.8375,2097 C1729.0375,2094.5 1701.6375,2082.7 1673.8375,2070.8 C1599.6375,2039.2 1557.9375,2021.2 1525.3375,2007 C1509.4375,2000 1494.3375,1993.6 1491.8375,1992.7 C1487.6375,1991.1 1432.2375,1991 749.3375,1990.5 C13.6375,1990 11.3375,1990 7.9375,1988 C6.0375,1986.9 3.6375,1984.7 2.4375,1983.2 L0.3375,1980.4 L0.0375,1000.7 C-0.0625,461.9 0.0375,19.5 0.3375,17.6 C1.1375,13.2 10.7375,3.1 15.7375,1.3 C18.6375,0.2 228.6375,0 1145.8375,0 L2272.3375,0 L2277.6375,3 C2284.7375,6.9 2291.3375,14.3 2292.2375,19.2 C2293.3375,25.9 2292.9375,1355.7 2291.8375,1361.6 C2290.5375,1368.5 2284.6375,1377.1 2279.2375,1379.9 C2275.8375,1381.7 2273.5375,1382 2261.8375,1382 C2249.4375,1382 2247.9375,1381.8 2242.8375,1379.4 C2237.5375,1376.9 2233.1375,1372.6 2229.7375,1366.5 C2228.5375,1364.4 2228.2375,1267.6 2227.8375,715.5 L2227.3375,67 L1773.8375,66.5 C1524.4375,66.2 1320.1375,66.1 1319.9375,66.2 C1318.9375,66.9 1323.4375,70.6 1327.6375,72.5 C1330.2375,73.7 1337.0375,77.4 1342.8375,80.8 C1353.5375,86.9 1374.9375,98.7 1417.3375,121.8 C1430.5375,128.9 1450.1375,139.6 1460.8375,145.5 C1496.9375,165.4 1578.7375,209.7 1603.8375,223 C1612.9375,227.8 1625.0375,234.3 1630.8375,237.5 C1636.6375,240.6 1645.8375,245.6 1651.3375,248.5 C1662.0375,254.2 1681.3375,264.5 1772.8375,313.7 C1854.7375,357.8 1909.6375,387.1 1935.3375,400.5 C1964.1375,415.6 1970.7375,420.4 1972.7375,428 C1973.7375,431.8 1975.5375,448.8 1976.1375,458.5 L1976.3375,463 L2045.4375,463.3 L2114.5375,463.5 L2116.9375,466.1 L2119.3375,468.7 L2119.3375,521.1 L2119.3375,573.5 L2116.5375,576.2 L2113.8375,579 L2084.4375,579.3 L2055.1375,579.6 L2054.6375,592.8 C2054.1375,604.1 2054.2375,1278.4 2054.6375,1649.6 L2054.8375,1770.2 L2094.1375,1770.8 C2115.6375,1771.1 2142.4375,1771.1 2153.5375,1770.7 L2173.8375,1770 L2174.0375,1743.8 C2174.3375,1720.2 2174.5375,1717.4 2176.1375,1715.8 C2177.8375,1714.1 2182.9375,1714 2263.1375,1713.7 C2320.3375,1713.5 2349.5375,1713.7 2351.9375,1714.4 C2359.5375,1716.7 2359.2375,1715 2359.8375,1758.9 L2360.3375,1798 L2371.3375,1798.5 C2380.7375,1798.9 2382.8375,1799.3 2385.5375,1801.3 C2387.3375,1802.6 2389.0375,1804.6 2389.3375,1805.8 C2389.6375,1807 2389.7375,1834.4 2389.6375,1866.7 L2389.3375,1925.5 L2385.5375,1929.2 L2381.8375,1933 L2349.0375,1933.5 L2316.3375,1934 L2310.3375,1938.2 C2307.0375,1940.5 2295.5375,1949.1 2284.8375,1957.3 C2274.1375,1965.4 2254.3375,1980.4 2240.8375,1990.6 C2227.3375,2000.8 2201.9375,2020.1 2184.3375,2033.5 C2113.2375,2087.6 2100.8375,2096.9 2063.8375,2124.4 C2029.0375,2150.2 2017.9375,2158.7 2005.3375,2169.3 C1999.3375,2174.5 1991.7375,2180 1988.6375,2181.6 L1982.9375,2184.5 L1959.1375,2184.4 C1946.0375,2184.4 1934.6375,2184.1 1933.8375,2183.8 Z M1927.8375,2142.7 C1927.8375,2142.3 1922.8375,2126.4 1916.7375,2107.5 C1910.6375,2088.5 1900.5375,2056.6 1894.2375,2036.5 C1881.1375,1995 1875.4375,1977.3 1866.2375,1949.4 L1859.7375,1929.8 L1725.0375,1929.2 C1650.9375,1928.9 1579.1375,1928.7 1565.3375,1928.9 C1551.6375,1929 1518.3375,1929.2 1491.5375,1929.3 C1441.1375,1929.5 1439.0375,1929.7 1445.9375,1933.3 C1449.9375,1935.4 1486.3375,1952.3 1502.8375,1959.7 C1511.3375,1963.6 1525.7375,1970.2 1534.8375,1974.5 C1551.0375,1982.1 1591.2375,2000 1609.6375,2007.7 C1626.8375,2014.9 1661.2375,2030.2 1686.3375,2042 C1700.1375,2048.4 1720.1375,2057.3 1730.8375,2061.7 C1766.4375,2076.3 1793.2375,2087.3 1801.8375,2091 C1806.5375,2093 1824.7375,2100.4 1842.3375,2107.5 C1886.2375,2125.1 1918.1375,2138.7 1924.3375,2142.3 C1926.7375,2143.7 1927.8375,2143.8 1927.8375,2142.7 Z M2022.8375,2112.5 C2073.7375,2075.6 2093.2375,2060.5 2146.6375,2017 C2159.8375,2006.3 2214.1375,1961.3 2227.9375,1949.8 C2237.0375,1942.1 2246.1375,1934.9 2248.1375,1933.6 C2250.1375,1932.4 2251.8375,1931 2251.8375,1930.5 C2251.8375,1929.6 2097.6375,1928.1 2076.3375,1928.8 C2068.1375,1929.1 2059.9375,1929.4 2058.2375,1929.4 C2054.6375,1929.5 2054.6375,1929.5 2049.8375,1945.5 C2048.1375,1951.3 2046.3375,1957.1 2045.8375,1958.5 C2045.3375,1959.9 2043.2375,1966.9 2041.0375,1974 C2036.1375,1990.1 2017.2375,2051.4 2010.5375,2073 C2007.8375,2081.8 2005.0375,2091.3 2004.3375,2094 C2003.6375,2096.8 2000.9375,2106.6 1998.4375,2116 C1995.9375,2125.3 1993.8375,2133.1 1993.8375,2133.3 C1993.8375,2133.6 1995.3375,2132.6 1997.1375,2131.3 C1998.8375,2129.9 2010.4375,2121.5 2022.8375,2112.5 Z M1966.7375,2056.4 C1973.5375,2028.9 1974.9375,2022.9 1983.9375,1983 C1987.2375,1968.2 1991.3375,1950.3 1993.0375,1943.2 C1994.7375,1936.2 1995.8375,1930.2 1995.6375,1929.9 C1994.9375,1929.3 1908.6375,1929.4 1908.0375,1930 C1907.7375,1930.3 1908.0375,1931.1 1908.7375,1931.9 C1909.3375,1932.7 1919.0375,1960.7 1930.2375,1994.1 C1941.4375,2027.6 1951.5375,2057.5 1952.7375,2060.5 C1953.9375,2063.5 1955.8375,2069.5 1956.9375,2073.8 C1958.1375,2078 1959.3375,2081.5 1959.7375,2081.5 C1960.1375,2081.5 1963.2375,2070.2 1966.7375,2056.4 Z M1194.3375,1922.6 L1197.2375,1922 L1189.7375,1914 C1143.6375,1865.4 1130.7375,1852.5 1098.6375,1823.6 C1081.4375,1808.1 1078.8375,1804.2 1078.8375,1793.6 C1078.8375,1789.9 1079.3375,1785.3 1079.8375,1783.3 C1081.0375,1779.3 1085.6375,1774 1089.7375,1772.2 C1091.7375,1771.3 1186.3375,1770.9 1473.1375,1770.7 L1853.8375,1770.5 L1853.7375,1270.7 C1853.6375,995.9 1853.3375,767.8 1853.1375,763.8 L1852.6375,756.7 L1847.5375,758.2 C1837.4375,761.2 1781.1375,780.3 1771.7375,783.9 L1762.1375,787.6 L1761.5375,807.8 C1761.1375,818.9 1760.8375,871.9 1760.7375,925.5 C1760.7375,1030.7 1760.3375,1042.6 1757.0375,1049.1 C1754.3375,1054.3 1752.5375,1055.5 1740.3375,1059.5 C1734.8375,1061.3 1720.6375,1066 1708.8375,1070 C1677.8375,1080.4 1579.2375,1112.8 1545.8375,1123.6 C1530.1375,1128.6 1494.4375,1140.3 1466.3375,1149.6 C1438.3375,1158.8 1413.1375,1166.9 1410.5375,1167.6 C1407.8375,1168.2 1403.0375,1168.5 1399.7375,1168.2 C1392.9375,1167.6 1354.7375,1154.8 1226.8375,1110.3 C1220.5375,1108.1 1196.4375,1099.9 1173.3375,1092 C1150.2375,1084.1 1129.3375,1076.9 1126.8375,1076 C1124.3375,1075.1 1110.8375,1070.3 1096.8375,1065.5 C1082.8375,1060.7 1058.7375,1052.2 1043.3375,1046.7 C1027.9375,1041.2 1010.6375,1035.1 1004.8375,1033.2 C999.0375,1031.2 989.9375,1028.1 984.5375,1026.1 L974.8375,1022.6 L973.4375,1024.8 C961.7375,1044 936.8375,1087.8 936.8375,1089.3 C936.8375,1089.7 941.2375,1089.7 946.6375,1089.3 C993.2375,1085.9 1010.5375,1085.7 1016.3375,1088.4 C1021.4375,1090.7 1022.9375,1092.5 1023.5375,1097.2 C1024.0375,1101.8 1023.1375,1103.1 1009.6375,1117.7 C987.8375,1141.3 955.8375,1179.9 942.2375,1199 C934.4375,1210 930.0375,1216.5 912.8375,1243 C909.6375,1248 907.3375,1252.4 907.7375,1252.8 C908.2375,1253.3 917.7375,1252.2 928.9375,1250.5 C954.8375,1246.5 976.7375,1245.4 983.2375,1247.9 C988.6375,1250 990.7375,1252.2 991.5375,1256.8 C992.2375,1261.4 989.5375,1266.1 978.4375,1279.9 C974.0375,1285.4 966.8375,1294.9 962.4375,1301 C950.7375,1317.4 906.8375,1383.6 900.8375,1394 C898.0375,1399 884.9375,1424.7 871.8375,1451.2 C855.5375,1484.2 847.3375,1499.7 845.8375,1500.5 C842.5375,1502.3 837.2375,1500.9 834.9375,1497.6 C833.8375,1496 828.5375,1485.4 823.3375,1473.9 C800.1375,1423.6 783.4375,1396.2 731.5375,1324.2 C718.5375,1306.2 718.7375,1306.7 724.8375,1297 C733.2375,1283.5 737.7375,1272.4 739.7375,1259.6 C740.3375,1256 741.1375,1252.8 741.6375,1252.3 C742.2375,1251.7 749.3375,1251.8 758.9375,1252.4 C767.9375,1252.9 775.4375,1253.2 775.7375,1253 C776.2375,1252.5 764.6375,1233.2 756.4375,1221 C746.3375,1205.9 725.7375,1177.8 713.4375,1162.5 C707.1375,1154.5 701.8375,1147.5 701.8375,1146.8 C701.8375,1146.2 704.2375,1143 707.1375,1139.8 C710.0375,1136.6 715.5375,1130.4 719.3375,1126 C734.9375,1107.8 745.9375,1095.6 764.0375,1076.4 C787.8375,1051.1 791.2375,1044.9 791.3375,1026.5 C791.3375,1014.1 789.6375,1008.3 783.2375,998.3 C778.5375,990.9 768.9375,982.4 760.0375,977.7 C751.3375,973.1 737.8375,969.9 709.6375,965.5 C702.9375,964.5 696.4375,962.9 694.6375,961.8 C692.8375,960.8 688.5375,956.1 685.1375,951.5 C666.8375,926.6 662.8375,921.6 657.6375,916 C654.5375,912.6 650.4375,909.1 648.6375,908.2 C646.8375,907.3 635.2375,902.9 622.8375,898.4 C610.4375,894 590.4375,886.7 578.3375,882.3 C560.1375,875.6 496.4375,853.5 490.7375,851.8 C489.6375,851.5 488.9375,852.1 488.7375,853.7 C488.5375,855 488.4375,892.6 488.6375,937.4 C488.8375,1014.1 488.9375,1018.7 490.6375,1018.2 C526.1375,1006.5 543.5375,1003.6 593.8375,1001.4 C634.4375,999.6 672.9375,1001.3 709.8375,1006.6 C742.3375,1011.2 747.9375,1013 752.1375,1020.3 C755.3375,1025.8 752.9375,1030.1 739.2375,1043.6 C727.0375,1055.6 704.1375,1080.8 680.3375,1108.4 C648.7375,1145 627.6375,1174 599.3375,1219.5 C592.3375,1230.8 584.1375,1244 581.1375,1248.8 C578.0375,1253.6 575.8375,1257.9 576.2375,1258.2 C576.5375,1258.5 585.6375,1257.8 596.5375,1256.6 C625.4375,1253.4 639.1375,1252.5 659.5375,1252.5 C685.3375,1252.5 693.2375,1254.7 695.2375,1262.6 C696.7375,1268.8 694.0375,1272.3 667.3375,1299 C642.6375,1323.7 628.5375,1339.3 607.2375,1365.5 C582.4375,1396.1 557.1375,1433.6 543.9375,1459.5 C541.5375,1464.2 538.9375,1468.7 538.2375,1469.6 C536.7375,1471.3 536.3375,1473.5 537.6375,1473.5 C538.0375,1473.5 547.8375,1472.2 559.3375,1470.6 C588.4375,1466.5 601.7375,1465.3 620.4375,1465.1 C638.2375,1465 639.1375,1465.2 642.5375,1471.9 C645.4375,1477.6 642.5375,1483.1 629.1375,1497.5 C609.3375,1518.8 599.3375,1530.7 582.4375,1553.3 C563.1375,1579.1 533.5375,1622 520.6375,1643 C515.9375,1650.6 499.8375,1680 499.8375,1681 C499.8375,1681.1 496.5375,1688.2 492.4375,1696.7 C488.4375,1705.1 480.3375,1723.3 474.5375,1737 C459.7375,1772 457.1375,1777.6 453.5375,1781.3 C449.7375,1785.2 447.2375,1785.3 443.0375,1781.8 C440.4375,1779.4 432.1375,1764.6 428.8375,1756.1 C426.5375,1750.2 402.3375,1697.5 397.5375,1687.9 C385.0375,1663 367.3375,1633.4 348.0375,1605 C334.7375,1585.4 332.5375,1582.4 305.0375,1546.5 C301.9375,1542.4 296.4375,1535.7 292.8375,1531.5 C289.2375,1527.4 282.9375,1520 278.8375,1515 C274.7375,1510.1 268.6375,1503.1 265.2375,1499.5 C247.4375,1480.8 244.7375,1475 250.6375,1468.4 C253.2375,1465.4 254.1375,1465.1 263.2375,1464.2 C274.9375,1462.9 290.2375,1464.1 318.4375,1468.5 C344.6375,1472.6 359.8375,1474.3 359.8375,1473.3 C359.8375,1472.8 358.9375,1471.2 357.9375,1469.7 C356.8375,1468.2 352.2375,1460.9 347.5375,1453.5 C330.2375,1425.8 317.5375,1408.7 281.8375,1365 C268.4375,1348.5 245.9375,1324.5 218.1375,1297 C194.4375,1273.5 191.8375,1270.6 191.8375,1267.7 C191.8375,1262.8 194.3375,1258.8 199.1375,1256.3 C203.3375,1254 203.5375,1254 247.3375,1254.1 C286.6375,1254.1 292.8375,1254.3 305.8375,1256.2 C313.8375,1257.4 320.5375,1258.1 320.7375,1257.9 C321.0375,1257.7 320.3375,1256.2 319.1375,1254.7 C318.0375,1253.2 308.0375,1237.4 296.8375,1219.5 C285.7375,1201.7 274.0375,1183.4 271.0375,1179 C241.1375,1136 201.7375,1089.9 164.2375,1054 C147.8375,1038.3 139.8375,1029.2 137.8375,1023.9 C136.9375,1021.7 137.2375,1020.3 139.0375,1016.6 C144.6375,1005.4 151.9375,1004 213.8375,1002.4 C276.8375,1000.8 324.2375,1003.3 359.3375,1010.1 C370.2375,1012.2 391.7375,1017.2 398.1375,1019.1 C399.7375,1019.6 399.8375,1014.4 399.8375,920.2 C399.8375,826.4 399.7375,820.7 398.1375,820 C385.8375,815.2 303.5375,786.4 265.3375,773.6 C249.4375,768.2 235.0375,763.1 233.3375,762.3 C231.7375,761.4 228.6375,758.9 226.5375,756.7 C223.0375,753.1 222.5375,752 221.8375,745.4 C220.2375,731.4 218.6375,590.8 219.7375,562.6 L220.7375,536.2 L223.9375,532.9 C227.1375,529.6 242.0375,523.4 257.1375,519 C260.2375,518.1 262.8375,517 262.8375,516.6 C262.8375,516.2 253.2375,511.4 241.6375,506 C213.4375,493 181.0375,476.9 178.8375,475 C175.1375,471.6 174.6375,467 173.8375,426 C173.4375,404 172.9375,355.9 172.7375,319 C172.3375,254 172.4375,251.8 174.3375,246.5 C175.4375,243.5 177.7375,239.7 179.4375,238 C183.3375,234 197.2375,227.3 214.8375,220.7 C222.2375,217.9 238.7375,211.5 251.3375,206.5 C264.0375,201.4 288.5375,191.8 305.8375,185 C361.0375,163.4 395.4375,149.7 430.3375,135.5 C449.0375,127.9 472.9375,118.2 483.3375,114 C501.2375,106.8 535.1375,92.6 566.1375,79.4 C573.7375,76.1 580.1375,73.5 580.4375,73.5 C580.7375,73.5 582.9375,72.6 585.3375,71.5 C589.6375,69.6 591.5375,67.9 590.5375,66.9 C590.3375,66.6 472.7375,66.5 329.4375,66.5 C92.4375,66.5 68.5375,66.7 66.2375,68.1 L63.8375,69.7 L63.8375,993.7 C63.8375,1645.5 64.1375,1918.2 64.9375,1919.6 C65.5375,1920.7 66.9375,1922 68.1375,1922.5 C70.6375,1923.5 1189.6375,1923.6 1194.3375,1922.6 Z M1439.13873,1892.9 C1438.2375,1891.1 1421.3375,1872.9 1406.3375,1857.7 C1389.3375,1840.3 1366.9375,1819.5 1365.3375,1819.5 C1364.9375,1819.5 1359.3375,1824.6 1352.9375,1830.8 C1340.9375,1842.4 1329.1375,1853.1 1317.8375,1862.4 C1314.2375,1865.3 1310.2375,1869 1308.8375,1870.5 C1302.1375,1877.8 1290.8375,1891.6 1290.8375,1892.5 C1290.8375,1893.1 1297.3375,1893.6 1307.6375,1893.7 C1330.1375,1894.1 1439.4375,1893.4 1439.13873,1892.9 Z M1244.5375,1883.2 C1262.8375,1865.8 1266.8375,1862.2 1283.3375,1848.4 C1307.5375,1828.2 1317.8375,1819.2 1317.8375,1818.3 C1317.8375,1817.9 1280.6375,1817.5 1235.2375,1817.5 C1187.4375,1817.5 1152.8375,1817.9 1153.03578,1818.4 C1153.4375,1819.5 1180.2375,1844.1 1192.6375,1854.7 C1201.7375,1862.6 1229.8375,1891.3 1229.8375,1892.7 C1229.8375,1893.2 1230.7375,1893.5 1231.7375,1893.5 C1232.8375,1893.5 1238.4375,1889 1244.5375,1883.2 Z M1703.4375,1892.3 C1704.3375,1891.4 1631.9375,1818.1 1629.8375,1817.8 C1629.0375,1817.6 1623.6375,1821.6 1617.8375,1826.6 C1612.0375,1831.6 1603.0375,1839.1 1597.8375,1843.3 C1592.6375,1847.5 1586.5375,1852.6 1584.3375,1854.6 C1560.2375,1876.4 1544.9375,1890.8 1544.4375,1892 C1543.9375,1893.4 1552.7375,1893.5 1623.2375,1893.3 C1666.9375,1893.1 1703.0375,1892.7 1703.4375,1892.3 Z M1846.7375,1890.9 L1854.1375,1890.3 L1853.5375,1879.2 C1853.1375,1873 1852.8375,1861.8 1852.8375,1854.3 C1852.8375,1845.6 1852.4375,1840.5 1851.8375,1840.5 C1851.2375,1840.5 1846.2375,1844.7 1840.5375,1849.8 C1834.9375,1854.9 1827.2375,1861.7 1823.3375,1864.9 C1817.8375,1869.4 1794.8375,1891.3 1794.8375,1891.9 C1794.8375,1892.3 1840.3375,1891.4 1846.7375,1890.9 Z M1518.3375,1869 C1528.2375,1859.7 1543.0375,1845.4 1551.3375,1837.4 C1559.5375,1829.4 1568.7375,1820.9 1571.6375,1818.6 C1574.4375,1816.2 1576.8375,1813.9 1576.8375,1813.4 C1576.8375,1812.3 1416.1375,1812.2 1415.4375,1813.3 C1415.1375,1813.8 1417.7375,1816.1 1421.1375,1818.5 C1429.3375,1824.2 1442.9375,1836.6 1467.3375,1860.6 C1493.6375,1886.5 1496.5375,1889 1498.7375,1887.3 C1499.6375,1886.6 1508.4375,1878.4 1518.3375,1869 Z M2011.4375,1885.3 C2011.1375,1884 2010.8375,1867.8 2010.8375,1849.2 L2010.8375,1815.5 L1981.1375,1815.9 C1964.7375,1816.1 1939.7375,1816.4 1925.6375,1816.4 L1899.8375,1816.5 L1899.8375,1852 L1899.8375,1887.5 L1955.9375,1887.5 L2012.0375,1887.5 L2011.4375,1885.3 Z M2160.6375,1886.8 L2175.8375,1886.2 L2175.8375,1851.4 L2175.8375,1816.6 L2118.1375,1816.3 C2086.3375,1816.1 2059.1375,1816.2 2057.6375,1816.4 L2054.8375,1816.7 L2054.8375,1835.5 C2054.8375,1845.8 2055.1375,1861.7 2055.5375,1870.8 L2056.1375,1887.5 L2100.8375,1887.5 C2125.4375,1887.5 2152.3375,1887.2 2160.6375,1886.8 Z M1754.6375,1882.9 C1755.1375,1882.1 1762.8375,1873.9 1771.9375,1864.8 C1786.2375,1850.3 1800.8375,1836.9 1820.1375,1820.6 C1823.0375,1818.2 1825.4375,1815.6 1825.6375,1815 C1825.8375,1814 1815.9375,1813.6 1781.6375,1813.1 C1744.7375,1812.6 1691.6375,1812.7 1684.4375,1813.3 C1683.0375,1813.5 1684.0375,1815.1 1688.9375,1820.7 C1696.1375,1828.8 1751.9375,1884.4 1753.0375,1884.5 C1753.4375,1884.5 1754.1375,1883.8 1754.6375,1882.9 Z M1995.7375,1771 L2011.8375,1770.3 L2011.7375,1731.1 C2011.6375,1709.6 2011.3375,1690.7 2010.9375,1689.2 L2010.3375,1686.4 L2006.7375,1689.2 C1995.0375,1698.3 1978.1375,1712.8 1962.3375,1727.3 C1940.5375,1747.3 1917.7375,1769.6 1918.2375,1770.4 C1918.8375,1771.3 1977.9375,1771.8 1995.7375,1771 Z M1905.3375,1728.8 C1906.6375,1727.2 1909.2375,1724.2 1911.0375,1722 C1922.3375,1708.5 1949.6375,1678.4 1964.4375,1663.3 C1973.9375,1653.5 1982.5375,1644.4 1983.4375,1643 C1984.9375,1640.7 1984.9375,1640.3 1983.3375,1637.8 C1982.3375,1636.3 1973.6375,1627.4 1963.9375,1618 C1954.2375,1608.7 1936.4375,1591 1924.3375,1578.7 C1912.2375,1566.5 1902.0375,1556.5 1901.6375,1556.5 C1900.4375,1556.5 1900.6375,1731.5 1901.8375,1731.5 C1902.4375,1731.5 1903.9375,1730.3 1905.3375,1728.8 Z M2011.8375,1511.7 C2011.8375,1461.8 2011.4375,1420.4 2010.9375,1419.6 C2010.3375,1418.7 2009.8375,1418.6 2009.4375,1419.4 C2009.0375,1420 2003.5375,1424.9 1997.1375,1430.2 C1979.7375,1444.7 1965.7375,1457.5 1952.6375,1470.4 C1941.2375,1481.8 1924.5375,1501 1922.0375,1505.7 C1920.6375,1508.3 1918.1375,1505.5 1950.8375,1539 C1975.5375,1564.4 1985.5375,1575.1 1998.1375,1589.8 C2004.6375,1597.3 2010.4375,1603.3 2010.9375,1603 C2011.4375,1602.6 2011.8375,1566.4 2011.8375,1511.7 Z M1906.7375,1459.8 C1927.0375,1435.4 1935.1375,1426.5 1966.1375,1394.2 C1976.9375,1382.8 1985.8375,1373.1 1985.8375,1372.6 C1985.8375,1372.1 1977.1375,1363.6 1966.5375,1353.7 C1955.9375,1343.8 1944.0375,1332.1 1940.1375,1327.8 C1936.2375,1323.4 1925.7375,1313 1916.9375,1304.6 L1900.8375,1289.3 L1900.8375,1376.9 C1900.8375,1431.2 1901.2375,1464.5 1901.7375,1464.5 C1902.3375,1464.5 1904.5375,1462.4 1906.7375,1459.8 Z M2011.8375,1248 C2011.8375,1197.7 2011.6375,1156.5 2011.3375,1156.5 C2009.2375,1156.5 1975.1375,1186.1 1957.3375,1203.4 C1939.4375,1220.8 1921.8375,1240.8 1921.8375,1243.7 C1921.8375,1244.3 1932.9375,1256.1 1946.6375,1269.9 C1978.5375,1302.3 1983.9375,1308.1 1998.1375,1325.3 C2004.6375,1333.1 2010.4375,1339.5 2010.9375,1339.5 C2011.4375,1339.5 2011.8375,1303.7 2011.8375,1248 Z M1907.6375,1196.3 C1910.8375,1192.8 1917.7375,1185.1 1922.9375,1179 C1932.2375,1168.1 1968.2375,1131.7 1981.0375,1120.3 L1987.7375,1114.3 L1945.1375,1072.1 C1921.7375,1049 1902.2375,1029.9 1901.7375,1029.69837 C1901.2375,1029.5 1900.8375,1066.1 1900.8375,1115.9 C1900.8375,1163.5 1901.0375,1202.5 1901.2375,1202.5 C1901.4375,1202.5 1904.3375,1199.7 1907.6375,1196.3 Z M1436.6375,1092.5 C1450.1375,1088.1 1466.5375,1082.9 1473.1375,1080.9 C1479.8375,1079 1485.4375,1077.3 1485.6375,1077 C1486.5375,1076.1 1484.5375,1074.6 1481.0375,1073.4 C1479.0375,1072.8 1467.0375,1068 1454.3375,1062.8 C1408.1375,1043.8 1379.7375,1032 1351.8375,1020.5 C1321.7375,1008 1266.6375,986 1220.8375,968 C1191.2375,956.4 1173.4375,949.2 1134.3375,933 C1120.6375,927.3 1103.9375,920.6 1097.3375,918 C1090.7375,915.4 1073.4375,908.3 1058.8375,902.3 C1032.9375,891.5 961.6375,862.9 914.8375,844.5 C901.9375,839.4 877.6375,829.7 860.8375,823 C798.0375,797.7 787.7375,793.6 763.3375,784 C726.0375,769.4 683.8375,752.7 661.3375,743.5 C650.3375,739 633.7375,732.4 624.3375,728.8 C597.2375,718.4 560.3375,703.6 521.0375,687.2 C514.5375,684.5 513.2375,684.3 509.5375,685.2 C502.8375,686.9 370.9375,731.7 368.7375,733 C368.1375,733.4 368.0375,734.1 368.5375,734.6 C369.0375,735.1 379.1375,738.8 390.9375,742.9 C424.3375,754.4 491.3375,777.6 512.3375,785 C522.8375,788.6 536.9375,793.6 543.8375,796 C550.7375,798.3 569.8375,805.1 586.3375,811 C602.8375,816.8 630.5375,826.5 647.8375,832.5 C665.1375,838.5 685.2375,845.4 692.3375,848 C699.5375,850.6 716.1375,856.4 729.3375,861 C742.5375,865.6 762.8375,872.7 774.3375,876.8 C785.9375,881 807.9375,888.7 823.3375,894 C855.3375,905 869.1375,909.9 883.3375,915 C888.8375,917 900.1375,921.1 908.3375,924 C916.6375,926.9 940.0375,935.2 960.3375,942.5 C980.7375,949.7 1009.5375,959.9 1024.3375,965.2 C1039.2375,970.4 1059.0375,977.4 1068.3375,980.7 C1077.7375,984 1094.8375,990 1106.3375,994 C1117.9375,998 1142.8375,1006.8 1161.8375,1013.5 C1209.0375,1030.2 1228.1375,1036.9 1264.8375,1049.5 C1315.8375,1067 1396.6375,1095.9 1404.3375,1099.5 C1408.3375,1101.3 1412.5375,1100.4 1436.6375,1092.5 Z M2011.6375,989.6 C2011.7375,941.6 2011.4375,901.7 2011.0375,900.8 C2010.3375,899.6 2007.1375,901.8 1994.9375,912 C1975.2375,928.5 1959.9375,942.5 1946.7375,956.2 C1935.7375,967.6 1920.8375,985 1920.8375,986.4 C1920.8375,986.8 1929.0375,995 1939.1375,1004.5 C1966.9375,1031.1 1993.1375,1058 2005.2375,1072.8 C2007.4375,1075.4 2009.6375,1077.4 2010.2375,1077.2 C2011.0375,1076.9 2011.4375,1050.6 2011.6375,989.6 Z M1550.3375,1056 C1594.7375,1042.2 1635.2375,1028.9 1635.54498,1027.9 C1635.7375,1027.4 1628.0375,1023.6 1618.6375,1019.6 C1596.3375,1010 1583.9375,1004.5 1471.8375,954.8 C1420.4375,932 1369.8375,909.6 1359.3375,905 C1339.8375,896.5 1230.9375,847.8 1211.3375,838.7 C1201.9375,834.4 1113.0375,794.1 1040.3375,761.3 C1028.8375,756 1006.0375,745.7 989.8375,738.2 C973.6375,730.8 943.7375,717.3 923.3375,708.2 C890.8375,693.7 872.5375,685.5 856.8375,678.3 C845.4375,673.1 783.5375,645.4 776.8375,642.5 C762.4375,636.3 734.3375,623.7 726.8375,620.1 C722.7375,618.1 718.0375,616.5 716.3375,616.5 C714.6375,616.5 681.0375,627.3 641.7375,640.6 C602.4375,653.8 566.8375,665.8 562.5375,667.2 C556.2375,669.3 555.0375,670 555.9375,671.1 C556.5375,671.9 557.7375,672.5 558.5375,672.5 C561.0375,672.5 612.3375,693.1 646.0375,707.7 C653.5375,710.9 679.0375,720.8 702.5375,729.6 C744.4375,745.3 792.2375,764.3 850.3375,788.3 C880.3375,800.6 895.5375,806.7 923.8375,817.5 C966.5375,833.8 1157.5375,910.1 1246.8375,946.5 C1259.2375,951.5 1283.5375,961.3 1300.8375,968.1 C1364.3375,993.4 1406.0375,1010.1 1436.8375,1022.7 C1454.1375,1029.9 1476.0375,1038.8 1485.3375,1042.5 C1494.7375,1046.3 1508.6375,1052.1 1516.3375,1055.4 C1526.8375,1059.9 1531.1375,1061.3 1533.3375,1060.9 C1535.0375,1060.6 1542.6375,1058.4 1550.3375,1056 Z M1695.0375,975.3 C1695.2375,974 1695.14254,956.4 1694.8375,936.2 L1694.3375,899.3 L1682.8375,894.6 C1669.4375,889 1621.8375,866.8 1527.8375,822.3 C1522.0375,819.5 1512.1375,814.9 1505.8375,812 C1499.5375,809.1 1484.6375,802.2 1472.8375,796.5 C1384.3375,754.5 1352.0375,739.5 1229.8375,683.8 C1207.5375,673.7 1186.4375,664 1182.8375,662.3 C1179.2375,660.6 1171.6375,657.1 1165.8375,654.5 C1160.0375,651.9 1136.0375,640.8 1112.3375,629.8 C1088.7375,618.8 1049.7375,600.7 1025.8375,589.7 C981.5375,569.3 933.9375,547 850.8375,507.8 C804.9375,486.1 775.4375,472.5 774.4375,472.5 C774.1375,472.5 773.8375,493.4 773.8375,518.9 L773.8375,565.2 L791.6375,572.5 C801.3375,576.5 823.3375,586.1 840.3375,593.8 C857.4375,601.4 882.8375,612.8 896.8375,619 C910.8375,625.2 929.7375,633.8 938.8375,638 C947.9375,642.2 967.2375,651 981.8375,657.5 C996.4375,664 1017.5375,673.4 1028.8375,678.5 C1040.1375,683.6 1057.2375,691.2 1066.8375,695.5 C1076.4375,699.8 1087.5375,704.7 1091.3375,706.5 C1095.2375,708.3 1103.7375,712.1 1110.3375,715 C1116.9375,717.9 1134.9375,726 1150.3375,733 C1165.7375,740 1192.7375,752.2 1210.3375,760 C1227.9375,767.9 1252.9375,779.2 1265.8375,785 C1338.5375,818.1 1345.9375,821.4 1397.8375,844.8 C1420.6375,855 1429.2375,858.8 1486.8375,884.5 C1501.9375,891.2 1520.8375,899.6 1528.8375,903.2 C1536.8375,906.8 1555.7375,915.3 1570.8375,922 C1585.9375,928.7 1611.4375,940.2 1627.3375,947.5 C1662.4375,963.6 1693.1375,977.4 1694.0375,977.4 C1694.4375,977.5 1694.8375,976.5 1695.0375,975.3 Z M1911.4375,934.6 C1920.8375,922.2 1962.4375,880.2 1982.6375,862.7 C1985.4375,860.2 1987.8375,857.6 1987.8375,856.9 C1987.8375,854.9 1949.7375,816.5 1930.6375,799.3 C1910.9375,781.5 1903.1375,775.2 1901.7375,776.1 C1900.7375,776.7 1900.4375,940.3 1901.4375,942.9 C1901.9375,944.3 1902.2375,944.3 1904.3375,942.7 C1905.5375,941.8 1908.7375,938.1 1911.4375,934.6 Z M1695.0375,828 L1694.8375,789.5 L1686.0375,785.1 C1681.2375,782.7 1667.9375,776.4 1656.3375,771 C1617.7375,753.1 1607.4375,748.3 1586.8375,738.5 C1575.5375,733.1 1553.3375,722.6 1537.3375,715 C1521.4375,707.4 1493.9375,694.4 1476.3375,686 C1443.0375,670.1 1439.9375,668.7 1410.3375,655 C1400.4375,650.4 1380.9375,641.3 1367.0375,634.6 C1353.1375,627.9 1341.5375,622.5 1341.4375,622.5 C1341.2375,622.5 1333.5375,618.9 1324.2375,614.4 C1314.9375,609.9 1304.2375,604.8 1300.3375,603 C1276.0375,591.6 1230.6375,570 1195.3375,553 C1126.0375,519.6 1123.6375,518.5 1123.4375,518.5 C1123.2375,518.5 1114.2375,514.2 1103.4375,509 C1092.5375,503.8 1083.5375,499.5 1083.3375,499.5 C1083.1375,499.5 1067.9375,492.1 1049.5375,483.1 C1031.1375,474 1012.2375,464.8 1007.6375,462.7 C998.9375,458.6 942.1375,430.9 887.4375,404.1 C869.9375,395.5 855.4375,388.5 855.2375,388.5 C855.0375,388.5 847.5375,384.9 838.6375,380.4 C820.8375,371.6 799.9375,361.7 784.5375,354.9 C777.8375,351.9 774.6375,351 774.2375,351.8 C774.0375,352.5 773.9375,372.3 774.0375,395.9 C774.3375,432.8 774.5375,438.9 775.8375,439.6 C776.6375,440.1 787.4375,445.1 799.8375,450.9 C830.5375,465.1 853.8375,476 869.3375,483.5 C887.1375,492.1 907.6375,501.9 917.8375,506.7 C922.5375,508.9 931.0375,513 936.8375,515.7 C942.6375,518.5 959.2375,526.3 973.8375,533 C988.4375,539.8 1008.6375,549.2 1018.8375,554 C1029.0375,558.8 1039.8375,563.8 1042.8375,565.2 C1045.8375,566.6 1057.2375,572 1068.1375,577.1 C1079.0375,582.3 1088.1375,586.5 1088.2375,586.5 C1088.4375,586.5 1094.3375,589.2 1101.3375,592.5 C1108.3375,595.9 1119.3375,601 1125.7375,603.9 C1132.1375,606.9 1140.3375,610.7 1144.0375,612.4 C1162.3375,621 1183.2375,630.6 1200.8375,638.5 C1211.5375,643.3 1224.1375,649.1 1228.8375,651.3 C1233.5375,653.5 1251.7375,661.8 1269.3375,669.8 C1286.9375,677.8 1306.7375,686.9 1313.3375,690 C1328.0375,697 1371.3375,717 1394.3375,727.5 C1403.7375,731.8 1417.2375,738 1424.3375,741.5 C1431.5375,744.9 1446.1375,751.7 1456.8375,756.7 C1476.8375,765.9 1497.8375,775.8 1559.8375,805 C1643.8375,844.7 1691.3375,866.3 1694.3375,866.5 C1695.0375,866.5 1695.2375,853.2 1695.0375,828 Z M2011.8375,702.5 L2011.8375,579.5 L1993.9375,579.5 L1976.1375,579.5 L1975.4375,615.8 C1974.6375,656.4 1973.1375,698 1972.2375,703.8 C1971.1375,710.6 1967.1375,713.8 1953.0375,719.3 C1946.0375,722 1935.7375,725.8 1930.1375,727.6 C1923.8375,729.6 1919.8375,731.5 1919.8375,732.3 C1919.8375,733 1925.3375,738.8 1932.1375,745.2 C1953.9375,766 1999.2375,811.8 2004.7375,818.8 C2007.7375,822.5 2010.5375,825.5 2011.0375,825.5 C2011.4375,825.5 2011.8375,770.2 2011.8375,702.5 Z M1780.2375,709.1 C1809.4375,699.5 1834.5375,691.3 1836.1375,690.9 C1837.6375,690.6 1839.0375,689.9 1839.3553,689.5 C1839.6375,689 1832.5375,685.1 1823.6375,680.7 C1803.7375,670.9 1749.2375,643 1722.8375,629 C1698.0375,616 1680.8375,607.1 1626.3375,579.2 C1602.1375,566.8 1575.8375,553.2 1567.8375,549.1 C1559.8375,544.9 1544.0375,536.8 1532.7375,531 C1505.7375,517.4 1486.7375,507.6 1462.8375,495 C1353.7375,437.5 1175.3375,346.5 1041.3375,280.1 C987.1375,253.3 953.6375,236 936.7375,226.4 L928.2375,221.5 L900.2375,230.9 C873.4375,239.9 802.4375,265.6 784.9375,272.6 C780.2375,274.5 776.3375,276.5 776.120482,277.1 C775.9375,277.8 779.1375,279.7 783.3375,281.4 C811.4375,293.2 863.5375,317.3 924.8375,347 C943.8375,356.2 970.6375,369 984.3375,375.5 C1041.3375,402.4 1049.4375,406.2 1072.8375,417.5 C1112.4375,436.6 1128.9375,444.5 1129.4375,444.5 C1129.7375,444.5 1140.8375,449.7 1154.1375,456.1 C1167.4375,462.5 1189.6375,473 1203.3375,479.5 C1217.1375,486 1235.5375,494.7 1244.3375,499 C1262.8375,507.9 1301.1375,526.2 1311.3375,531 C1315.2375,532.8 1331.1375,540.5 1346.8375,548 C1362.5375,555.6 1382.7375,565.2 1391.8375,569.5 C1400.9375,573.8 1417.5375,581.6 1428.8375,587 C1440.1375,592.3 1459.2375,601.3 1471.3375,607 C1483.4375,612.6 1501.6375,621.2 1511.8375,626 C1522.0375,630.8 1537.1375,637.9 1545.3375,641.7 C1553.6375,645.6 1568.4375,652.6 1578.3375,657.3 C1595.3375,665.3 1600.9375,667.9 1631.8375,682.7 C1638.7375,686 1658.3375,695.1 1675.3375,703 C1692.4375,710.9 1710.5375,719.4 1715.7375,721.9 C1720.9375,724.4 1725.6375,726.5 1726.1375,726.5 C1726.6375,726.5 1751.0375,718.7 1780.2375,709.1 Z M291.5375,693.4 C295.8375,691.7 306.1375,688 314.3375,685 C343.1375,674.8 377.3375,661.3 386.9375,656.4 C393.3375,653.2 400.9375,648.1 406.9375,643 C420.4375,631.6 452.0375,602 466.3375,587.6 C484.4375,569.2 492.6375,562.6 513.3375,549.8 C539.2375,533.8 559.6375,523.5 606.8375,502.5 C655.0375,481.1 671.2375,474.5 702.8375,463.7 C706.9375,462.3 710.6375,460.7 711.0375,460.1 C711.4375,459.5 711.8375,449.6 711.8375,438.1 L711.8375,417.3 L709.6375,417.8 C708.3375,418.1 694.0375,423.3 677.8375,429.5 C661.6375,435.6 639.5375,443.8 628.8375,447.6 C618.1375,451.5 607.1375,455.5 604.3375,456.5 C596.1375,459.6 569.0375,469.5 559.8375,472.7 C529.7375,483.4 488.6375,513.7 446.3375,556.4 C418.4375,584.7 401.0375,598.9 378.9375,611.7 C358.4375,623.6 326.4375,634.4 287.3375,642.8 L281.3375,644 L281.0375,655 C280.6375,669.3 281.8375,696.5 282.8375,696.5 C283.3375,696.5 287.2375,695.1 291.5375,693.4 Z M1911.1375,607.1 C1911.5375,583.4 1911.5375,563.8 1911.1375,563.4 C1910.6375,563.1 1906.5375,561.1 1901.8375,559 C1892.3375,554.8 1855.8375,536.7 1837.3375,527 C1805.6375,510.5 1773.8375,493.9 1737.3375,475 C1715.3375,463.6 1695.1375,453 1692.3375,451.5 C1689.6375,450 1680.3375,445.2 1671.8375,440.7 C1627.3375,417.8 1577.7375,391.9 1573.3375,389.5 C1570.6375,388 1556.2375,380.6 1541.3375,373 C1513.3375,358.7 1458.6375,330.6 1443.8375,322.8 C1429.7375,315.3 1325.9375,261.6 1301.3375,249 C1288.7375,242.5 1258.5375,226.9 1234.3375,214.2 C1210.1375,201.6 1183.8375,187.9 1175.8375,183.7 C1167.8375,179.6 1156.6375,173.7 1150.8375,170.5 C1145.0375,167.4 1132.7375,160.8 1123.3375,156 C1114.0375,151.2 1099.8375,143.7 1091.8375,139.4 C1065.3375,125.2 1050.5375,117.6 1023.3375,103.8 C1008.5375,96.4 989.2375,86.5 980.6375,81.9 C972.0375,77.3 964.4375,73.5 963.8375,73.5 C962.7375,73.5 962.6375,108.4 963.7375,142.8 L964.3375,162.6 L979.3375,170.4 C987.6375,174.6 1001.1375,181.9 1009.3375,186.5 C1017.6375,191.1 1056.0375,210.9 1094.8375,230.5 C1133.6375,250.1 1170.3375,268.9 1176.3375,272.2 C1182.4375,275.5 1204.9375,287.1 1226.3375,298 C1247.8375,308.9 1273.0375,321.9 1282.3375,327 C1291.7375,332 1305.2375,339.2 1312.3375,343 C1319.5375,346.7 1329.6375,352.2 1334.8375,355.1 C1349.4375,363.2 1374.1375,376 1410.3375,394.2 C1428.5375,403.3 1457.9375,418.3 1475.8375,427.5 C1493.7375,436.7 1519.1375,449.8 1532.3375,456.5 C1577.0375,479.4 1619.2375,501.2 1634.8375,509.5 C1643.3375,514 1662.5375,524 1677.3375,531.7 C1729.5375,558.8 1752.6375,570.9 1778.8375,585 C1865.6375,631.6 1904.3375,651 1908.8375,650.2 C1910.1375,650 1910.4375,644 1911.1375,607.1 Z M457.1375,638.3 C458.3375,637.7 469.4375,633.6 481.8375,629.3 C494.2375,624.9 512.6375,618.4 522.8375,614.8 C533.0375,611.3 552.8375,604.4 566.8375,599.5 C580.8375,594.7 598.8375,588.4 606.8375,585.5 C614.8375,582.7 628.7375,577.7 637.8375,574.5 C646.9375,571.3 667.2375,564 683.1375,558.4 L711.8375,548.1 L711.8375,520.3 C711.8375,497.4 711.6375,492.5 710.4375,492.5 C708.8375,492.5 675.0375,505 654.1375,513.4 C631.6375,522.4 557.9375,556.7 536.3375,568.3 C517.3375,578.5 510.9375,582.7 498.7375,593.3 C488.2375,602.4 452.8375,637.5 452.8375,638.8 C452.8375,639.8 454.6375,639.7 457.1375,638.3 Z M294.1375,613.4 C299.7375,611.7 308.1375,609.2 312.8375,607.8 C326.8375,603.6 355.6375,592.6 365.2375,587.8 C388.8375,575.9 401.5375,566 431.7375,535.8 C445.6375,521.8 458.1375,509.7 459.4375,508.8 C460.7375,508 461.8375,506.9 461.8375,506.4 C461.8375,504.7 458.1375,505.5 448.7375,509 C410.2375,523.2 331.2375,551.1 297.8375,562.2 C290.4375,564.7 283.6375,567.1 282.7375,567.6 C281.3375,568.3 281.1375,571.5 280.9375,592.5 C280.7375,614.2 280.8375,616.5 282.3375,616.5 C283.2375,616.5 288.6375,615.1 294.1375,613.4 Z M1913.1375,497.8 C1913.4375,479.8 1913.5375,464.7 1913.2375,464.4 C1913.0375,464 1898.9375,456.6 1882.0375,447.9 C1865.1375,439.3 1844.6375,428.6 1836.3375,424.2 C1817.7375,414.3 1790.8375,400.1 1767.8375,388 C1738.1375,372.4 1695.0375,349.2 1655.3375,327.6 C1634.4375,316.2 1610.6375,303.3 1602.3375,299 C1594.1375,294.7 1580.8375,287.7 1572.8375,283.5 C1564.8375,279.3 1552.9375,273 1546.3375,269.5 C1539.7375,266 1519.5375,255 1501.3375,245 C1456.7375,220.3 1400.3375,190 1326.8375,151 C1316.6375,145.6 1306.3375,140.1 1303.8375,138.7 C1298.1375,135.6 1264.1375,117.3 1252.3375,111 C1226.1375,97 1185.9375,74.9 1180.5375,71.4 C1177.1375,69.2 1173.5375,67.2 1172.3375,67 C1168.6375,66.2 1013.8375,66 1014.13663,66.8 C1014.2375,67.3 1021.5375,71.3 1030.3375,75.9 C1039.1375,80.4 1050.6375,86.4 1055.8375,89.2 C1061.0375,92 1072.3375,97.8 1080.8375,102.3 C1089.3375,106.7 1113.2375,119.1 1133.8375,129.7 C1154.4375,140.4 1184.6375,156.2 1200.8375,164.7 C1217.0375,173.2 1248.3375,189.5 1270.3375,200.8 C1292.3375,212.1 1320.4375,226.6 1332.8375,233 C1345.2375,239.4 1363.0375,248.6 1372.3375,253.5 C1381.7375,258.3 1401.9375,268.8 1417.3375,276.7 C1432.7375,284.7 1457.5375,297.4 1472.3375,305 C1487.2375,312.6 1510.6375,324.8 1524.3375,332 C1538.1375,339.3 1563.3375,352.3 1580.3375,361 C1597.4375,369.7 1621.0375,382 1632.8375,388.3 C1644.6375,394.6 1669.1375,407.4 1687.2375,416.7 C1705.3375,426 1721.0375,434.2 1722.2375,435 C1724.8375,436.6 1860.2375,506.7 1878.8375,516 C1896.0375,524.7 1908.9375,530.4 1910.9375,530.5 C1912.3375,530.5 1912.6375,526.8 1913.1375,497.8 Z M366.0375,470.6 C378.8375,466.3 397.6375,459.7 407.8375,456 C418.0375,452.4 437.1375,445.5 450.3375,440.8 C463.5375,436.2 482.6375,429.3 492.8375,425.5 C503.0375,421.7 521.9375,414.8 534.8375,410.2 C547.7375,405.5 583.7375,391.9 614.8375,380 C645.9375,368 679.6375,355.3 689.8375,351.8 C700.0375,348.2 708.6375,345 709.0375,344.6 C709.4375,344.3 710.0375,334.4 710.3375,322.6 L711.0375,301.2 L708.6375,301.8 C706.2375,302.4 698.3375,305.2 640.3375,326.3 C628.2375,330.7 600.5375,341 578.8375,349.3 C515.5375,373.2 491.8375,382.1 484.3375,384.8 C477.7375,387.2 407.0375,414.1 372.8375,427.3 C364.3375,430.6 345.6375,438 331.3375,443.8 C317.0375,449.5 304.0375,454.5 302.5375,454.9 C300.9375,455.3 299.8375,456.1 300.1375,456.8 C300.5375,458 339.4375,478.4 341.5375,478.5 C342.2375,478.5 353.2375,475 366.0375,470.6 Z M258.4375,399.1 C269.9375,395.1 281.1375,391 283.3375,390.2 C285.5375,389.3 300.1375,383.9 315.8375,378.1 C331.5375,372.3 355.3375,363.5 368.8375,358.5 C403.2375,345.7 470.5375,321 494.3375,312.5 C505.3375,308.5 519.3375,302.7 525.3375,299.6 C545.8375,288.8 578.2375,267 603.8375,246.7 C624.6375,230.2 630.9375,224.5 652.8375,202.5 C671.9375,183.2 680.8375,175.9 712.5375,152.7 C723.2375,145 743.8375,132.3 764.5375,120.8 C788.7375,107.4 810.7375,98.3 852.3375,84.5 C895.8375,70.2 898.3375,69.3 898.3375,67.5 C898.3375,66.4 888.0375,66.2 840.3375,66.4 L782.3375,66.6 L776.3375,69.1 C768.5375,72.3 740.9375,83 723.8375,89.5 C716.4375,92.3 704.5375,97.6 697.3375,101.2 C683.2375,108.2 646.5375,132.1 632.8375,143.2 C628.1375,147 619.6375,153.8 613.8375,158.4 C608.0375,163 590.7375,179.5 575.3375,195 C541.8375,228.7 529.4375,238.9 505.2375,252.8 C496.2375,257.9 470.6375,270.7 458.9375,276 C454.7375,277.8 446.1375,281.7 439.8375,284.5 C400.7375,302.1 359.0375,316.2 308.8375,328.8 C279.5375,336.2 275.1375,337.2 253.5375,341 C243.2375,342.8 234.5375,344.5 234.2375,344.8 C233.9375,345.1 233.9375,359.1 234.3375,375.9 C234.9375,399 235.4375,406.5 236.3375,406.5 C237.0375,406.5 246.9375,403.2 258.4375,399.1 Z M247.1375,313 C279.5375,308.1 303.0375,302.4 340.3375,290 C377.0375,277.9 400.1375,269 431.8375,255 C472.1375,237.1 494.5375,225.4 516.8375,210.7 C530.5375,201.6 532.7375,199.7 558.1375,174.2 C572.8375,159.3 584.8375,147.1 584.8375,146.9 C584.8375,145.7 580.1375,146.9 574.1375,149.6 C570.4375,151.3 556.7375,157 543.8375,162.2 C530.9375,167.4 514.5375,174.1 507.3375,177 C500.2375,179.9 483.5375,186.6 470.3375,191.8 C457.1375,197 439.1375,204.3 430.3375,207.8 C400.0375,220.2 351.3375,239.4 301.8375,258.5 C280.6375,266.7 258.8375,275.1 253.3375,277.3 C247.8375,279.4 241.2375,281.9 238.6375,282.9 L233.8375,284.7 L233.8375,299.6 C233.8375,312.2 234.0375,314.5 235.3375,314.5 C236.1375,314.5 241.4375,313.8 247.1375,313 Z M631.9375,264.6 C637.1375,262.5 652.8375,256.4 666.8375,251.2 C680.8375,246 701.1375,238.2 711.8375,234 C722.5375,229.8 737.2375,224.1 744.3375,221.3 C751.5375,218.6 766.8375,212.6 778.3375,208 C834.0375,186 868.7375,173.1 887.1375,167.4 L900.8375,163.1 L900.8375,129.8 C900.8375,103.1 900.5375,96.5 899.5375,96.5 C898.8375,96.5 892.6375,98.8 885.7375,101.6 C878.9375,104.4 863.9375,110.3 852.3375,114.7 C823.0375,125.7 818.8375,127.5 796.9375,138.1 C777.5375,147.5 762.2375,155.7 747.8375,164.3 C736.0375,171.4 711.0375,188.3 703.8375,193.9 C697.6375,198.8 664.6375,227.8 641.2375,249 C635.2375,254.5 628.1375,260.6 625.5375,262.5 C621.3375,265.7 619.5375,268.5 621.7375,268.5 C622.2375,268.5 626.8375,266.7 631.9375,264.6 Z" id="Shape"></path>
                <path d="M1444.8375,1646.4 C1432.2375,1642.3 1388.7375,1628.9 1370.3375,1623.4 C1312.6375,1606 1255.5375,1583.6 1221.8375,1565.1 C1171.6375,1537.5 1130.5375,1497 1108.1375,1453 C1099.4375,1436 1095.5375,1425.2 1090.4375,1405 C1085.0375,1383.3 1084.3375,1375.5 1084.3375,1340 C1084.3375,1303.4 1085.3375,1291.2 1091.4375,1254.2 C1095.5375,1229.4 1095.5375,1225.6 1092.3375,1211.7 C1083.5375,1174.7 1080.8375,1154.3 1082.8375,1138.2 C1084.5375,1123.2 1088.1375,1118.3 1099.1375,1115.3 C1103.3375,1114.2 1104.2375,1114.3 1107.3375,1115.9 C1109.1375,1116.9 1110.9375,1118.4 1111.3375,1119.3 C1111.6375,1120.1 1112.5375,1127.6 1113.4375,1135.9 C1115.0375,1152.2 1116.3375,1158.7 1120.2375,1170.8 C1123.6375,1180.9 1133.1375,1200.5 1136.0375,1203.2 C1137.6375,1204.6 1141.8375,1206 1149.3375,1207.5 C1170.2375,1211.7 1215.4375,1224.9 1243.8375,1235.2 C1297.7375,1254.7 1329.9375,1273.3 1369.9375,1308.3 C1425.1375,1356.5 1463.2375,1434.6 1472.4375,1518 C1475.7375,1547.3 1475.2375,1624.3 1471.7375,1640.6 C1470.4375,1646.8 1466.3375,1650.5 1461.0375,1650.5 C1459.0375,1650.4 1451.7375,1648.6 1444.8375,1646.4 Z M1349.8375,1503.8 C1349.8375,1503.3 1346.8375,1500.3 1343.1375,1497 C1327.7375,1483.2 1313.6375,1468.9 1297.4375,1450.6 C1238.1375,1383.6 1231.2375,1375.5 1188.7375,1322.9 C1161.1375,1288.8 1141.3375,1265.5 1139.7375,1265.5 C1137.7375,1265.5 1141.6375,1274.7 1155.5375,1302.5 C1166.2375,1324.1 1175.2375,1339.5 1188.6375,1359 C1210.6375,1391.3 1223.7375,1407.4 1246.8375,1430.6 C1274.3375,1458.1 1298.3375,1476.2 1336.3375,1497.7 C1348.2375,1504.5 1349.8375,1505.2 1349.8375,1503.8 Z" id="Shape"></path>
            </g>
        </g>
    </g>
</svg>